<?xml version="1.0" encoding="utf-8"?>
<!-- Generator: Adobe Illustrator 23.0.4, SVG Export Plug-In . SVG Version: 6.00 Build 0)  -->
<svg version="1.1" id="Layer_1" xmlns="http://www.w3.org/2000/svg" xmlns:xlink="http://www.w3.org/1999/xlink" x="0px" y="0px"
	 viewBox="0 0 12 12" style="enable-background:new 0 0 12 12;" xml:space="preserve">
<style type="text/css">
	.st0{fill:#4CAF50;}
	.st1{fill:none;stroke:#FFFFFF;stroke-width:1.4;stroke-linecap:round;stroke-miterlimit:10;}
	.st2{fill:none;stroke:#FFFFFF;stroke-width:1.4;stroke-linecap:round;stroke-linejoin:round;stroke-miterlimit:10;}
</style>
<path class="st0" d="M6,12c-0.8,0-1.56-0.15-2.3-0.46c-0.74-0.3-1.38-0.74-1.95-1.3c-0.56-0.56-1-1.21-1.3-1.95C0.15,7.56,0,6.8,0,6
	c0-0.8,0.15-1.56,0.46-2.3c0.3-0.74,0.74-1.38,1.3-1.95c0.56-0.56,1.21-1,1.95-1.3C4.44,0.15,5.2,0,6,0c0.8,0,1.56,0.15,2.3,0.46
	c0.74,0.3,1.38,0.74,1.95,1.3c0.56,0.56,1,1.21,1.3,1.95S12,5.2,12,6s-0.15,1.56-0.46,2.3s-0.74,1.38-1.3,1.95
	c-0.56,0.56-1.21,1-1.95,1.3C7.56,11.85,6.8,12,6,12z"/>
<line class="st1" x1="5.96" y1="7.48" x2="5.96" y2="2.71"/>
<polyline class="st2" points="3.49,6.53 5.96,9 8.43,6.5 "/>
</svg>
