<?xml version="1.0" encoding="utf-8"?>
<!-- Generator: Adobe Illustrator 23.0.4, SVG Export Plug-In . SVG Version: 6.00 Build 0)  -->
<svg version="1.1" id="Layer_1" xmlns="http://www.w3.org/2000/svg" xmlns:xlink="http://www.w3.org/1999/xlink" x="0px" y="0px"
	 viewBox="0 0 20 20" style="enable-background:new 0 0 20 20;" xml:space="preserve">
<style type="text/css">
	.st0{fill:#006DAC;}
	.st1{fill:none;stroke:#FFFFFF;stroke-width:1.2;stroke-linecap:round;stroke-miterlimit:10;}
</style>
<path class="st0" d="M0,16V4c0-1.1,0.39-2.05,1.17-2.83S2.9,0,4,0h12c1.1,0,2.05,0.39,2.83,1.17C19.61,1.95,20,2.9,20,4v12
	c0,1.1-0.39,2.05-1.17,2.83C18.05,19.61,17.1,20,16,20H4c-1.1,0-2.05-0.39-2.83-1.17C0.39,18.05,0,17.1,0,16z"/>
<line class="st1" x1="8.45" y1="12.97" x2="14.42" y2="7"/>
<line class="st1" x1="5.8" y1="10.32" x2="8.45" y2="12.97"/>
</svg>
