<?xml version="1.0" encoding="utf-8"?>
<!-- Generator: Adobe Illustrator 23.0.4, SVG Export Plug-In . SVG Version: 6.00 Build 0)  -->
<svg version="1.1" id="Layer_1" xmlns="http://www.w3.org/2000/svg" xmlns:xlink="http://www.w3.org/1999/xlink" x="0px" y="0px"
	 viewBox="0 0 20 20" style="enable-background:new 0 0 20 20;" xml:space="preserve">
<style type="text/css">
	.st0{fill:none;stroke:#006DAC;stroke-width:1.4;stroke-linecap:round;stroke-linejoin:round;stroke-miterlimit:10;}
	.st1{fill:#006DAC;}
</style>
<line class="st0" x1="18" y1="3.2" x2="2" y2="3.2"/>
<line class="st0" x1="18" y1="9.6" x2="2" y2="9.6"/>
<line class="st0" x1="18" y1="16.8" x2="2" y2="16.8"/>
<path class="st1" d="M10,3.2c0,0.61-0.21,1.13-0.64,1.56C8.93,5.19,8.41,5.4,7.8,5.4c-0.61,0-1.13-0.21-1.56-0.64
	C5.81,4.33,5.6,3.81,5.6,3.2c0-0.61,0.21-1.13,0.64-1.56C6.67,1.21,7.19,1,7.8,1s1.13,0.21,1.56,0.64C9.79,2.07,10,2.59,10,3.2z"/>
<path class="st1" d="M16.64,9.6c0,0.61-0.21,1.13-0.64,1.56s-0.95,0.64-1.56,0.64c-0.61,0-1.13-0.21-1.56-0.64
	c-0.43-0.43-0.64-0.95-0.64-1.56c0-0.61,0.21-1.13,0.64-1.56c0.43-0.43,0.95-0.64,1.56-0.64s1.13,0.21,1.56,0.64
	C16.42,8.47,16.64,8.99,16.64,9.6z"/>
<path class="st1" d="M12.4,16.8c0,0.61-0.21,1.13-0.64,1.56C11.33,18.78,10.81,19,10.2,19s-1.13-0.21-1.56-0.64
	C8.22,17.93,8,17.41,8,16.8c0-0.61,0.21-1.13,0.64-1.56c0.43-0.43,0.95-0.64,1.56-0.64s1.13,0.21,1.56,0.64
	C12.19,15.67,12.4,16.19,12.4,16.8z"/>
</svg>
