<?xml version="1.0" encoding="utf-8"?>
<!-- Generator: Adobe Illustrator 23.0.4, SVG Export Plug-In . SVG Version: 6.00 Build 0)  -->
<svg version="1.1" id="Layer_1" xmlns="http://www.w3.org/2000/svg" xmlns:xlink="http://www.w3.org/1999/xlink" x="0px" y="0px"
	 viewBox="0 0 30 30" style="enable-background:new 0 0 30 30;" xml:space="preserve">
<style type="text/css">
	.st0{opacity:0.2;fill:#006DAC;}
	.st1{fill:none;stroke:#006DAC;stroke-width:1.4;stroke-linecap:round;stroke-miterlimit:10;}
	.st2{fill:none;stroke:#006DAC;stroke-width:1.4;stroke-miterlimit:10;}
</style>
<path class="st0" d="M15,0c1.99,0,3.9,0.38,5.74,1.14c1.84,0.76,3.46,1.85,4.87,3.25c1.41,1.41,2.49,3.03,3.25,4.87
	C29.62,11.1,30,13.01,30,15c0,1.99-0.38,3.9-1.14,5.74c-0.76,1.84-1.85,3.46-3.25,4.87c-1.41,1.41-3.03,2.49-4.87,3.25
	C18.9,29.62,16.99,30,15,30c-1.99,0-3.9-0.38-5.74-1.14s-3.46-1.85-4.87-3.25c-1.41-1.41-2.49-3.03-3.25-4.87
	C0.38,18.9,0,16.99,0,15s0.38-3.9,1.14-5.74C1.9,7.42,2.99,5.8,4.39,4.39S7.42,1.9,9.26,1.14C11.1,0.38,13.01,0,15,0z"/>
<path class="st1" d="M15.08,15.84c1.26,0,2.29-1.03,2.29-2.3c0-1.28-1.03-2.3-2.29-2.3c-1.26,0-2.29,1.03-2.29,2.3
	C12.79,14.79,13.82,15.84,15.08,15.84z M19.67,20.87c-0.55-2.04-2.4-3.54-4.59-3.54c-2.17,0-4.02,1.49-4.57,3.49"/>
<path class="st2" d="M21.11,21.1H8.89C7.84,21.1,7,20.24,7,19.21v-8.38c0-1.05,0.86-1.89,1.89-1.89H21.1c1.05,0,1.89,0.86,1.89,1.89
	v8.38C23,20.24,22.14,21.1,21.11,21.1z"/>
<line class="st1" x1="8.89" y1="7" x2="20.89" y2="7"/>
<line class="st1" x1="8.89" y1="23" x2="20.89" y2="23"/>
</svg>
