<?xml version="1.0" encoding="utf-8"?>
<!-- Generator: Adobe Illustrator 23.0.3, SVG Export Plug-In . SVG Version: 6.00 Build 0)  -->
<svg version="1.1" id="Layer_1" xmlns="http://www.w3.org/2000/svg" xmlns:xlink="http://www.w3.org/1999/xlink" x="0px" y="0px"
	 viewBox="0 0 30 30" style="enable-background:new 0 0 30 30;" xml:space="preserve">
<style type="text/css">
	.st0{clip-path:url(#SVGID_2_);}
	.st1{fill-rule:evenodd;clip-rule:evenodd;}
	.st2{fill-rule:evenodd;clip-rule:evenodd;fill:#FFFFFF;}
	.st3{fill-rule:evenodd;clip-rule:evenodd;fill:#D7DF23;}
</style>
<g>
	<defs>
		<rect id="SVGID_1_" width="30" height="30"/>
	</defs>
	<clipPath id="SVGID_2_">
		<use xlink:href="#SVGID_1_"  style="overflow:visible;"/>
	</clipPath>
	<g class="st0">
		<path class="st1" d="M27.46,14.98C27.34,7.65,20.05,2.7,12.94,3.7c-2.08,0.51-4.34,1.54-5.96,2.98C6.2,7.2,5.83,8.15,5.05,8.91
			c-3.13,4.57-2.59,10.42,1.31,13.98c0.5,0.49,1.03,0.95,1.6,1.37c-3.26-1.95-4.73-4.9-5.24-8.49c0-1.28,0.26-2.54,0.53-3.82
			c1.82-5.6,7.56-9.67,13.8-8.64c1.04,0.25,2.08,0.51,3.13,0.76c1.31,0.51,2.6,1.28,3.64,2.29c1.04,1.01,1.82,2.29,2.6,3.56
			c0.53,1.01,0.78,2.29,1.04,3.31C27.51,13.81,27.51,14.4,27.46,14.98L27.46,14.98z M15.97,26.36c2.8-0.44,5.14-1.98,7.06-4.09
			c0.53-0.76,0.94-1.47,1.45-2.23c0.64-1.56,0.59-2.95,0.8-3.93c0.26-1.78-0.35-3.21-0.86-4.74c-0.78-1.78-1.82-3.1-3.64-4.13
			C16.18,4.4,9.92,5.2,6.93,9.44c-0.02,0-0.1,0.11-0.26,0.33C6.88,8.9,7.41,8.38,7.94,7.88C9.5,6.6,11.32,5.59,13.4,5.09
			c2.35-0.25,4.68,0,6.77,1.01c3.13,1.78,5.21,4.57,5.73,7.88v3.06C25.25,22.04,20.94,25.85,15.97,26.36z M27.79,13.54
			c-0.05-0.62-0.21-1.45-0.45-2.25c-0.49-1.64-1.35-3.15-2.51-4.41c-0.61-0.65-1.29-1.26-2.32-1.98c-0.78-0.38-1.55-0.8-2.3-1.23
			c-0.49-0.28-1.09-0.62-1.87-0.87c-0.93-0.22-1.88-0.34-2.83-0.36c-0.93-0.03-1.85,0.05-2.75,0.22c-0.94,0.16-1.73,0.4-2.76,0.65
			C7.67,4.33,5.85,5.85,4.28,7.88c-5.46,7.63-0.53,18.31,8.59,19.57c1.5,0.2,3,0.12,4.42-0.2l1.01-0.26
			c0.03-0.02,0.08-0.03,0.11-0.03l1.15-0.44c0.06-0.03,0.11-0.05,0.18-0.08l0.48-0.22c0.92-0.45,1.78-1.01,2.57-1.67
			c-0.72,0.65-1.5,1.23-2.33,1.73l0.05,0.03c0.16-0.05,0.3-0.09,0.46-0.12c0,0,0,0.25-0.03,0.2c-0.26,0.19,0.14,0.02,0.65-0.25
			c0.51-0.26,1.01-0.59,1.45-0.97c0.66-0.55,1.23-1.14,2.04-2.1c0.83-1.45,1.87-2.71,2.35-4.41c0.16-0.45,0.3-0.98,0.4-1.53
			c0.09-0.55,0.16-1.11,0.16-1.68C27.98,14.87,27.92,14.28,27.79,13.54L27.79,13.54z"/>
		<path class="st2" d="M20.97,15.09c0,3.15-2.65,5.71-5.93,5.71c-3.27,0-5.93-2.56-5.93-5.71c0-3.15,2.65-5.71,5.93-5.71
			S20.97,11.94,20.97,15.09L20.97,15.09z"/>
		<path class="st3" d="M20.73,16.07c-0.11,0.48-0.22,0.95-0.34,1.44c-0.24,0.59-0.59,1.2-1.07,1.68c-0.48,0.48-1.09,0.86-1.69,1.22
			c-0.48,0.25-1.09,0.37-1.58,0.5c-0.29,0.03-0.62-0.09-0.91-0.11c3.55-0.09,5.97-3.38,5.45-6.64c-0.26-0.95-0.77-1.78-1.39-2.6
			c-0.26-0.36-0.75-0.58-1.12-0.94c-2.22-1.39-5.16-1.11-6.84,0.72c-0.24,0.24-0.45,0.49-0.66,0.76c0.9-1.31,2.33-2.23,4.06-2.5
			c0.61-0.02,1.23,0.09,1.84,0.2C19.17,10.61,21.16,13.2,20.73,16.07L20.73,16.07z M14.2,20.23c-2.43-0.25-4.3-2.23-4.55-4.52
			c0.22,1.28,0.99,2.26,2.03,3.14c0.37,0.23,0.91,0.56,1.28,0.8c0.62,0.23,0.99,0.48,1.6,0.59L14.2,20.23L14.2,20.23z M17.2,11.22
			c0.54,0.31,0.62,0.36,0.34,0.16c0.42,0.09,0.67,0.33,0.93,0.56c0.62,0.7,1.13,1.53,1.39,2.48c0.14,1.08,0.03,2.15-0.43,3.1
			c-0.83,1.45-2.16,2.42-3.74,2.68c-0.18,0-0.37,0-0.54,0.02c0.45-0.08,0.74-0.36,1.55-0.66c0.88-0.31,1.87-1.76,2.35-2.6
			C20.44,14.67,18.78,12.55,17.2,11.22L17.2,11.22z M21,14.12c-0.08-0.44-0.21-0.78-0.34-1.26c-0.51-1.06-1.26-1.89-2.25-2.59
			c-3.71-2.45-8.8-0.09-9.34,4.09c-0.21,1.65,0.38,3.24,1.44,4.46c-0.32-0.33-0.67-0.67-0.91-1.06l-0.03,0.03
			c0.03,0.09,0.16,0.16,0.19,0.25c0,0-0.13,0-0.1-0.02c-0.1-0.11-0.02,0.06,0.13,0.3c0.13,0.23,0.29,0.45,0.48,0.66
			c0.27,0.3,0.56,0.56,1.04,0.92c0.7,0.36,1.33,0.83,2.14,1.04c0.22,0.06,0.48,0.12,0.74,0.17c0.27,0.05,0.53,0.06,0.81,0.06
			c0.27,0,0.56-0.03,0.91-0.09c0.36-0.04,0.72-0.12,1.07-0.22c0.78-0.24,1.5-0.64,2.11-1.19c0.3-0.28,0.74-0.64,1.07-1.11
			c0.27-0.53,0.3-0.8,0.43-1.03c0.13-0.23,0.29-0.5,0.4-0.86c0.09-0.43,0.14-0.86,0.16-1.29C21.13,14.95,21.1,14.53,21,14.12
			L21,14.12z"/>
	</g>
</g>
</svg>
