<?xml version="1.0" encoding="utf-8"?>
<!-- Generator: Adobe Illustrator 23.0.4, SVG Export Plug-In . SVG Version: 6.00 Build 0)  -->
<svg version="1.1" id="Layer_1" xmlns="http://www.w3.org/2000/svg" xmlns:xlink="http://www.w3.org/1999/xlink" x="0px" y="0px"
	 viewBox="0 0 30 30" style="enable-background:new 0 0 30 30;" xml:space="preserve">
<style type="text/css">
	.st0{opacity:0.2;fill:#006DAC;}
	.st1{fill:none;stroke:#006DAC;stroke-width:1.4;stroke-miterlimit:10;}
	.st2{fill:none;stroke:#006DAC;stroke-width:1.4;stroke-linecap:round;stroke-miterlimit:10;}
</style>
<path class="st0" d="M15,0c1.99,0,3.9,0.38,5.74,1.14c1.84,0.76,3.46,1.85,4.87,3.25c1.41,1.41,2.49,3.03,3.25,4.87
	C29.62,11.1,30,13.01,30,15c0,1.99-0.38,3.9-1.14,5.74c-0.76,1.84-1.85,3.46-3.25,4.87c-1.41,1.41-3.03,2.49-4.87,3.25
	C18.9,29.62,16.99,30,15,30c-1.99,0-3.9-0.38-5.74-1.14s-3.46-1.85-4.87-3.25c-1.41-1.41-2.49-3.03-3.25-4.87
	C0.38,18.9,0,16.99,0,15s0.38-3.9,1.14-5.74C1.9,7.42,2.99,5.8,4.39,4.39S7.42,1.9,9.26,1.14C11.1,0.38,13.01,0,15,0z"/>
<path class="st1" d="M18.52,23h-7.47c-0.87,0-1.56-0.7-1.56-1.56V10.32c0-0.87,0.7-1.56,1.56-1.56h7.47c0.87,0,1.56,0.7,1.56,1.56
	v11.12C20.1,22.28,19.38,23,18.52,23z"/>
<path class="st2" d="M9.49,10.95V9.62c0-1.16,0.68-1.86,2.11-2.11c0,0,0,0,0.13-0.02c1.19-0.15,3.44-0.4,5.11-0.49
	c1.33-0.08,1.9,0.59,2.07,1.5"/>
<line class="st2" x1="11.3" y1="11.88" x2="17.13" y2="11.88"/>
<line class="st2" x1="11.2" y1="13.74" x2="14.55" y2="13.74"/>
</svg>
