<?xml version="1.0" encoding="utf-8"?>
<!-- Generator: Adobe Illustrator 23.0.3, SVG Export Plug-In . SVG Version: 6.00 Build 0)  -->
<svg version="1.1" id="Layer_1" xmlns="http://www.w3.org/2000/svg" xmlns:xlink="http://www.w3.org/1999/xlink" x="0px" y="0px"
	 viewBox="0 0 20 20" style="enable-background:new 0 0 20 20;" xml:space="preserve">
<style type="text/css">
	.st0{fill:#D7D7D7;}
	.st1{fill:none;stroke:#FFFFFF;stroke-width:1.6;stroke-linecap:round;stroke-linejoin:bevel;stroke-miterlimit:10;}
</style>
<path class="st0" d="M0,10c0-0.66,0.06-1.31,0.19-1.95C0.32,7.4,0.51,6.78,0.76,6.17c0.25-0.61,0.56-1.18,0.92-1.73
	s0.78-1.05,1.24-1.52C3.39,2.46,3.9,2.05,4.44,1.68c0.54-0.36,1.12-0.67,1.73-0.92C6.78,0.51,7.4,0.32,8.05,0.19
	C8.69,0.06,9.34,0,10,0c0.66,0,1.31,0.06,1.95,0.19c0.64,0.13,1.27,0.32,1.88,0.57c0.61,0.25,1.18,0.56,1.73,0.92
	s1.05,0.78,1.52,1.24c0.46,0.46,0.88,0.97,1.24,1.52c0.36,0.54,0.67,1.12,0.92,1.73c0.25,0.61,0.44,1.23,0.57,1.88
	C19.94,8.69,20,9.34,20,10c0,0.66-0.06,1.31-0.19,1.95c-0.13,0.64-0.32,1.27-0.57,1.88c-0.25,0.61-0.56,1.18-0.92,1.73
	s-0.78,1.05-1.24,1.52c-0.46,0.46-0.97,0.88-1.52,1.24c-0.55,0.36-1.12,0.67-1.73,0.92c-0.61,0.25-1.23,0.44-1.88,0.57
	C11.31,19.94,10.66,20,10,20c-0.66,0-1.31-0.06-1.95-0.19c-0.64-0.13-1.27-0.32-1.88-0.57c-0.61-0.25-1.18-0.56-1.73-0.92
	s-1.05-0.78-1.52-1.24c-0.46-0.46-0.88-0.97-1.24-1.52c-0.36-0.55-0.67-1.12-0.92-1.73c-0.25-0.61-0.44-1.23-0.57-1.88
	C0.06,11.31,0,10.66,0,10z"/>
<line class="st1" x1="13" y1="10" x2="9" y2="6"/>
<line class="st1" x1="13" y1="10" x2="9" y2="14"/>
</svg>
