<?xml version="1.0" encoding="utf-8"?>
<!-- Generator: Adobe Illustrator 23.0.3, SVG Export Plug-In . SVG Version: 6.00 Build 0)  -->
<svg version="1.1" id="Layer_1" xmlns="http://www.w3.org/2000/svg" xmlns:xlink="http://www.w3.org/1999/xlink" x="0px" y="0px"
	 viewBox="0 0 50 50" style="enable-background:new 0 0 50 50;" xml:space="preserve">
<style type="text/css">
	.st0{fill:#FF3B30;}
	.st1{fill:none;stroke:#FFFFFF;stroke-width:2.6;stroke-linecap:round;stroke-miterlimit:10;}
</style>
<path class="st0" d="M0,25c0-1.64,0.16-3.27,0.48-4.88s0.79-3.17,1.42-4.69c0.63-1.52,1.4-2.96,2.31-4.32
	c0.91-1.36,1.95-2.63,3.11-3.79s2.42-2.2,3.79-3.11c1.36-0.91,2.81-1.68,4.32-2.31s3.08-1.1,4.69-1.42S23.36,0,25,0
	c1.64,0,3.27,0.16,4.88,0.48c1.61,0.32,3.17,0.79,4.69,1.42c1.52,0.63,2.96,1.4,4.32,2.31c1.36,0.91,2.63,1.95,3.79,3.11
	s2.2,2.42,3.11,3.79c0.91,1.36,1.68,2.81,2.31,4.32c0.63,1.52,1.1,3.08,1.42,4.69S50,23.36,50,25c0,1.64-0.16,3.27-0.48,4.88
	c-0.32,1.61-0.79,3.17-1.42,4.69c-0.63,1.52-1.4,2.96-2.31,4.32c-0.91,1.36-1.95,2.63-3.11,3.79s-2.42,2.2-3.79,3.11
	c-1.36,0.91-2.81,1.68-4.32,2.31c-1.52,0.63-3.08,1.1-4.69,1.42C28.27,49.84,26.64,50,25,50s-3.27-0.16-4.88-0.48
	c-1.61-0.32-3.17-0.79-4.69-1.42c-1.52-0.63-2.96-1.4-4.32-2.31c-1.36-0.91-2.63-1.95-3.79-3.11s-2.2-2.42-3.11-3.79
	c-0.91-1.36-1.68-2.81-2.31-4.32c-0.63-1.52-1.1-3.08-1.42-4.69S0,26.64,0,25z"/>
<line class="st1" x1="31.73" y1="18.27" x2="18.27" y2="31.73"/>
<line class="st1" x1="31.73" y1="31.73" x2="18.27" y2="18.27"/>
</svg>
