<?xml version="1.0" encoding="utf-8"?>
<!-- Generator: Adobe Illustrator 23.0.4, SVG Export Plug-In . SVG Version: 6.00 Build 0)  -->
<svg version="1.1" id="Layer_1" xmlns="http://www.w3.org/2000/svg" xmlns:xlink="http://www.w3.org/1999/xlink" x="0px" y="0px"
	 viewBox="0 0 50 50" style="enable-background:new 0 0 50 50;" xml:space="preserve">
<style type="text/css">
	.st0{fill:#489E42;}
	.st1{fill:none;stroke:#489E42;stroke-width:1.4;}
	.st2{fill:none;stroke:#FFFFFF;stroke-width:2.6;stroke-linecap:round;stroke-miterlimit:10;}
</style>
<path class="st0" d="M25,0.7c1.6,0,3.18,0.16,4.74,0.47s3.08,0.77,4.56,1.38s2.87,1.36,4.2,2.25c1.33,0.89,2.55,1.89,3.68,3.02
	s2.14,2.36,3.02,3.68c0.89,1.33,1.63,2.73,2.25,4.2c0.61,1.47,1.07,2.99,1.38,4.56c0.31,1.56,0.47,3.15,0.47,4.74
	c0,1.6-0.16,3.18-0.47,4.74s-0.77,3.08-1.38,4.56c-0.61,1.47-1.36,2.87-2.25,4.2c-0.89,1.33-1.89,2.55-3.02,3.68
	s-2.36,2.14-3.68,3.02c-1.33,0.89-2.73,1.63-4.2,2.25c-1.47,0.61-2.99,1.07-4.56,1.38S26.6,49.3,25,49.3c-1.6,0-3.18-0.16-4.74-0.47
	c-1.56-0.31-3.08-0.77-4.56-1.38c-1.47-0.61-2.87-1.36-4.2-2.25c-1.33-0.89-2.55-1.89-3.68-3.02c-1.13-1.13-2.14-2.36-3.02-3.68
	c-0.89-1.33-1.63-2.73-2.25-4.2s-1.07-2.99-1.38-4.56S0.7,26.6,0.7,25s0.16-3.18,0.47-4.74c0.31-1.56,0.77-3.08,1.38-4.56
	c0.61-1.47,1.36-2.87,2.25-4.2c0.89-1.33,1.89-2.55,3.02-3.68s2.36-2.14,3.68-3.02c1.33-0.89,2.73-1.63,4.2-2.25
	c1.47-0.61,2.99-1.07,4.56-1.38C21.82,0.86,23.4,0.7,25,0.7z"/>
<path class="st1" d="M25,0.7c1.6,0,3.18,0.16,4.74,0.47s3.08,0.77,4.56,1.38s2.87,1.36,4.2,2.25c1.33,0.89,2.55,1.89,3.68,3.02
	s2.14,2.36,3.02,3.68c0.89,1.33,1.63,2.73,2.25,4.2c0.61,1.47,1.07,2.99,1.38,4.56c0.31,1.56,0.47,3.15,0.47,4.74
	c0,1.6-0.16,3.18-0.47,4.74s-0.77,3.08-1.38,4.56c-0.61,1.47-1.36,2.87-2.25,4.2c-0.89,1.33-1.89,2.55-3.02,3.68
	s-2.36,2.14-3.68,3.02c-1.33,0.89-2.73,1.63-4.2,2.25c-1.47,0.61-2.99,1.07-4.56,1.38S26.6,49.3,25,49.3c-1.6,0-3.18-0.16-4.74-0.47
	c-1.56-0.31-3.08-0.77-4.56-1.38c-1.47-0.61-2.87-1.36-4.2-2.25c-1.33-0.89-2.55-1.89-3.68-3.02c-1.13-1.13-2.14-2.36-3.02-3.68
	c-0.89-1.33-1.63-2.73-2.25-4.2s-1.07-2.99-1.38-4.56S0.7,26.6,0.7,25s0.16-3.18,0.47-4.74c0.31-1.56,0.77-3.08,1.38-4.56
	c0.61-1.47,1.36-2.87,2.25-4.2c0.89-1.33,1.89-2.55,3.02-3.68s2.36-2.14,3.68-3.02c1.33-0.89,2.73-1.63,4.2-2.25
	c1.47-0.61,2.99-1.07,4.56-1.38C21.82,0.86,23.4,0.7,25,0.7z"/>
<line class="st2" x1="20.75" y1="32.5" x2="35.12" y2="18.12"/>
<line class="st2" x1="14.38" y1="26.12" x2="20.75" y2="32.5"/>
</svg>
