<?xml version="1.0" encoding="utf-8"?>
<!-- Generator: Adobe Illustrator 23.0.4, SVG Export Plug-In . SVG Version: 6.00 Build 0)  -->
<svg version="1.1" id="Layer_1" xmlns="http://www.w3.org/2000/svg" xmlns:xlink="http://www.w3.org/1999/xlink" x="0px" y="0px"
	 viewBox="0 0 30 30" style="enable-background:new 0 0 30 30;" xml:space="preserve">
<style type="text/css">
	.st0{fill:#283C93;}
	.st1{fill:#FFFFFF;}
	.st2{fill:none;stroke:#FFFFFF;stroke-width:0.094;stroke-miterlimit:10;}
	.st3{fill:#EA2228;}
	.st4{fill:none;stroke:#EA2228;stroke-width:0.094;stroke-miterlimit:10;}
</style>
<circle class="st0" cx="15" cy="15" r="15"/>
<path class="st1" d="M24.78,10.08C24.96,9.72,25.12,9.36,25.3,9c0.05,0.37,0.1,0.73,0.15,1.1c0.35-0.12,0.7-0.26,1.06-0.36
	c-0.25,0.31-0.49,0.62-0.74,0.94c0.26,0.21,0.53,0.41,0.79,0.62c-0.35,0.04-0.71,0.06-1.06,0.09c-0.01,0.38-0.04,0.76-0.06,1.14
	c-0.2-0.27-0.39-0.56-0.59-0.83c-0.29,0.27-0.59,0.54-0.88,0.82c0.11-0.38,0.22-0.77,0.33-1.15c-0.34-0.04-0.69-0.09-1.03-0.14
	c0.33-0.19,0.67-0.38,1-0.57c-0.14-0.33-0.28-0.65-0.41-0.98C24.17,9.8,24.48,9.93,24.78,10.08"/>
<path class="st2" d="M24.78,10.08C24.96,9.72,25.12,9.36,25.3,9c0.05,0.37,0.1,0.73,0.15,1.1c0.35-0.12,0.7-0.26,1.06-0.36
	c-0.25,0.31-0.49,0.62-0.74,0.94c0.26,0.21,0.53,0.41,0.79,0.62c-0.35,0.04-0.71,0.06-1.06,0.09c-0.01,0.38-0.04,0.76-0.06,1.14
	c-0.2-0.27-0.39-0.56-0.59-0.83c-0.29,0.27-0.59,0.54-0.88,0.82c0.11-0.38,0.22-0.77,0.33-1.15c-0.34-0.04-0.69-0.09-1.03-0.14
	c0.33-0.19,0.67-0.38,1-0.57c-0.14-0.33-0.28-0.65-0.41-0.98C24.17,9.8,24.48,9.93,24.78,10.08z"/>
<path class="st1" d="M13.79,14.2c-0.42,0-0.77,0.07-1.06,0.23c-0.35,0.18-0.61,0.53-0.72,0.96c-0.07,0.26-0.12,0.59,0.02,0.87
	c0.12,0.25,0.4,0.36,0.63,0.38c0.07,0.01,0.14,0.01,0.21,0.01c0.23,0,0.56-0.05,0.81-0.28c0.19-0.17,0.32-0.43,0.38-0.78
	c0.03-0.14,0.06-0.29,0.09-0.44l0.02-0.1l0-0.01c0.05-0.26,0.11-0.54,0.17-0.8C14.14,14.21,13.96,14.2,13.79,14.2z M12.79,17.31
	c-0.07,0-0.12,0-0.18,0c-0.34-0.02-0.96-0.12-1.33-0.59c-0.3-0.38-0.37-0.94-0.19-1.51c0.16-0.59,0.62-1.11,1.2-1.35
	c0.5-0.23,1.02-0.26,1.48-0.26c0.18,0,0.36,0.01,0.54,0.01l0.02,0l0.16,0c0.06-0.29,0.11-0.58,0.17-0.87
	c0.04-0.18,0.07-0.36,0.11-0.54c0.2-0.02,0.4-0.03,0.6-0.04l0,0c0.1-0.01,0.19-0.01,0.29-0.02L15.6,12.4
	c-0.17,0.9-0.38,2.02-0.6,3.15c-0.12,0.59-0.39,1.07-0.77,1.35C13.87,17.18,13.39,17.31,12.79,17.31z"/>
<path class="st2" d="M14.75,12.22c0.3-0.03,0.6-0.04,0.89-0.06c-0.21,1.14-0.43,2.27-0.64,3.4c-0.1,0.51-0.34,1.03-0.77,1.35
	c-0.46,0.35-1.06,0.43-1.62,0.41c-0.49-0.03-1.02-0.19-1.34-0.59c-0.33-0.42-0.35-1.01-0.19-1.5c0.16-0.61,0.63-1.11,1.2-1.35
	c0.69-0.31,1.46-0.26,2.19-0.24C14.57,13.15,14.66,12.68,14.75,12.22z"/>
<path class="st3" d="M21.49,15.03c0.9-0.77,1.71-1.64,2.47-2.54c-0.35,1.19-1.02,2.29-1.92,3.14c-0.21,0.17-0.41,0.37-0.65,0.52
	c-0.78,0.53-1.7,0.87-2.65,0.88l0.02-0.02c0.75-0.44,1.46-0.92,2.13-1.47C21.1,15.37,21.31,15.22,21.49,15.03"/>
<path class="st4" d="M21.49,15.03c0.9-0.77,1.71-1.64,2.47-2.54c-0.35,1.19-1.02,2.29-1.92,3.14c-0.21,0.17-0.41,0.37-0.65,0.52
	c-0.78,0.53-1.7,0.87-2.65,0.88l0.02-0.02c0.75-0.44,1.46-0.92,2.13-1.47C21.1,15.37,21.31,15.22,21.49,15.03z"/>
<path class="st1" d="M8.73,14.26c-0.11,0-0.22,0.01-0.32,0.04c-0.7,0.16-1.23,0.9-1.2,1.68c0.01,0.19,0.08,0.36,0.19,0.48
	c0.19,0.2,0.48,0.24,0.69,0.24c0.02,0,0.03,0,0.05,0c0.43,0,0.87-0.22,1.14-0.56c0.19-0.24,0.31-0.54,0.36-0.88
	c0.04-0.31-0.06-0.61-0.26-0.78C9.21,14.34,8.99,14.26,8.73,14.26z M8,17.35c-0.46,0-0.83-0.09-1.14-0.27
	c-0.34-0.2-0.58-0.56-0.61-0.95c-0.05-0.54,0.12-1.11,0.49-1.56c0.42-0.51,1.06-0.84,1.77-0.91c0.12-0.01,0.25-0.02,0.37-0.02
	c0.44,0,0.81,0.09,1.12,0.27c0.33,0.19,0.57,0.54,0.62,0.91c0.06,0.48-0.07,1.01-0.38,1.46c-0.41,0.6-1.13,0.99-1.92,1.06
	C8.2,17.35,8.1,17.35,8,17.35z"/>
<path class="st2" d="M8.5,13.66c0.5-0.05,1.04-0.01,1.48,0.25c0.33,0.19,0.57,0.53,0.62,0.91c0.07,0.51-0.09,1.04-0.38,1.46
	c-0.43,0.63-1.17,1-1.92,1.06c-0.49,0.04-1.02,0-1.45-0.26c-0.34-0.2-0.58-0.56-0.61-0.95c-0.06-0.56,0.14-1.12,0.49-1.56
	C7.17,14.05,7.83,13.73,8.5,13.66z"/>
<path class="st1" d="M17.91,14.2c-0.22,0-0.44,0.05-0.66,0.15c-0.33,0.15-0.61,0.46-0.78,0.83c0.32,0.05,0.58,0.08,0.82,0.08
	c0.3,0,0.57-0.04,0.82-0.12c0.23-0.08,0.47-0.29,0.43-0.56c-0.01-0.18-0.16-0.3-0.3-0.34C18.13,14.21,18.02,14.2,17.91,14.2z
	 M17.32,17.45c-0.16,0-0.32-0.01-0.49-0.04c-0.49-0.08-0.89-0.3-1.13-0.62c-0.21-0.25-0.31-0.61-0.28-0.97
	c0.03-0.57,0.27-1.1,0.68-1.48c0.46-0.45,1.14-0.7,1.9-0.7c0.03,0,0.05,0,0.08,0c0.31,0.01,0.76,0.05,1.08,0.32
	c0.31,0.27,0.32,0.73,0.17,1.05c-0.16,0.32-0.49,0.51-0.74,0.61c-0.36,0.14-0.77,0.21-1.22,0.21c-0.31,0-0.65-0.03-1.01-0.1
	c-0.05,0.44,0.16,0.86,0.51,1.06c0.34,0.18,0.74,0.27,1.24,0.27c0.2,0,0.41-0.01,0.68-0.04l-0.02,0.02
	C18.35,17.3,17.85,17.45,17.32,17.45z"/>
<path class="st2" d="M16.09,14.34c0.52-0.5,1.27-0.71,1.98-0.7c0.38,0.01,0.79,0.07,1.08,0.32c0.29,0.26,0.33,0.71,0.17,1.05
	c-0.15,0.29-0.44,0.49-0.74,0.61c-0.71,0.27-1.5,0.24-2.24,0.11c-0.04,0.41,0.14,0.85,0.51,1.06c0.58,0.31,1.28,0.3,1.92,0.23
	l-0.02,0.02c-0.55,0.38-1.26,0.49-1.92,0.38c-0.43-0.07-0.87-0.26-1.13-0.62c-0.22-0.27-0.31-0.63-0.28-0.97
	C15.44,15.25,15.68,14.71,16.09,14.34z"/>
<path class="st1" d="M26.09,14.26c-0.11,0-0.21,0.01-0.32,0.04c-0.75,0.16-1.3,0.96-1.22,1.77c0.02,0.26,0.19,0.49,0.42,0.58
	c0.15,0.06,0.32,0.09,0.49,0.09c0.19,0,0.39-0.04,0.58-0.11c0.58-0.23,0.97-0.86,0.96-1.53c0-0.27-0.12-0.51-0.31-0.65
	C26.53,14.32,26.33,14.26,26.09,14.26z M25.33,17.4c-0.39,0-0.74-0.07-1.03-0.21c-0.37-0.18-0.65-0.52-0.73-0.9
	c-0.09-0.45,0-0.95,0.26-1.41c0.37-0.64,1.06-1.09,1.85-1.21c0.18-0.03,0.36-0.04,0.53-0.04c0.38,0,0.72,0.07,1.01,0.21
	c0.39,0.18,0.68,0.54,0.75,0.94c0.08,0.47-0.04,1.01-0.34,1.48c-0.38,0.59-1.06,1-1.82,1.11C25.65,17.38,25.49,17.4,25.33,17.4z"/>
<path class="st2" d="M25.69,13.66c0.51-0.07,1.06-0.06,1.54,0.17c0.38,0.17,0.68,0.53,0.75,0.94c0.09,0.51-0.06,1.04-0.34,1.47
	c-0.4,0.62-1.1,1.01-1.82,1.11c-0.51,0.07-1.04,0.04-1.51-0.18c-0.36-0.17-0.65-0.5-0.73-0.9c-0.1-0.48,0.03-0.99,0.26-1.41
	C24.22,14.21,24.94,13.78,25.69,13.66z"/>
<path class="st1" d="M3.77,13.83c0.39-0.11,0.8-0.15,1.21-0.14c0.45,0,0.9,0.03,1.34,0.1c-0.06,0.17-0.13,0.34-0.18,0.51
	c-0.64-0.05-1.29-0.09-1.92,0.06c-0.19,0.05-0.44,0.13-0.49,0.35c-0.01,0.17,0.15,0.27,0.29,0.31c0.45,0.12,0.94,0.11,1.37,0.31
	c0.2,0.09,0.37,0.26,0.41,0.49c0.06,0.35-0.04,0.73-0.29,0.99c-0.28,0.3-0.69,0.43-1.07,0.5C3.62,17.43,2.79,17.36,2,17.16
	c0.04-0.18,0.09-0.36,0.14-0.54c0.68,0.09,1.37,0.19,2.05,0.05c0.26-0.06,0.55-0.19,0.59-0.48c0.05-0.19-0.12-0.34-0.28-0.38
	c-0.43-0.13-0.89-0.1-1.31-0.26c-0.18-0.07-0.36-0.19-0.43-0.38c-0.13-0.33-0.01-0.72,0.25-0.95C3.23,14.03,3.49,13.9,3.77,13.83"/>
<path class="st2" d="M3.77,13.83c0.39-0.11,0.8-0.15,1.21-0.14c0.45,0,0.9,0.03,1.34,0.1c-0.06,0.17-0.13,0.34-0.18,0.51
	c-0.64-0.05-1.29-0.09-1.92,0.06c-0.19,0.05-0.44,0.13-0.49,0.35c-0.01,0.17,0.15,0.27,0.29,0.31c0.45,0.12,0.94,0.11,1.37,0.31
	c0.2,0.09,0.37,0.26,0.41,0.49c0.06,0.35-0.04,0.73-0.29,0.99c-0.28,0.3-0.69,0.43-1.07,0.5C3.62,17.43,2.79,17.36,2,17.16
	c0.04-0.18,0.09-0.36,0.14-0.54c0.68,0.09,1.37,0.19,2.05,0.05c0.26-0.06,0.55-0.19,0.59-0.48c0.05-0.19-0.12-0.34-0.28-0.38
	c-0.43-0.13-0.89-0.1-1.31-0.26c-0.18-0.07-0.36-0.19-0.43-0.38c-0.13-0.33-0.01-0.72,0.25-0.95C3.23,14.03,3.49,13.9,3.77,13.83z"
	/>
<path class="st1" d="M19.59,13.68c0.28,0,0.56,0,0.84,0c0.34,0.46,0.71,0.91,1.09,1.33l-0.02,0.02c-0.18,0.18-0.39,0.34-0.59,0.51
	C20.43,14.95,19.99,14.33,19.59,13.68"/>
<path class="st2" d="M19.59,13.68c0.28,0,0.56,0,0.84,0c0.34,0.46,0.71,0.91,1.09,1.33l-0.02,0.02c-0.18,0.18-0.39,0.34-0.59,0.51
	C20.43,14.95,19.99,14.33,19.59,13.68z"/>
<path class="st1" d="M21.4,16.14c0.24-0.15,0.44-0.35,0.65-0.52c0.52,0.58,1.06,1.15,1.59,1.71c-0.37-0.01-0.75,0-1.12,0
	c-0.1-0.06-0.16-0.15-0.24-0.23C21.97,16.8,21.67,16.48,21.4,16.14"/>
<path class="st2" d="M21.4,16.14c0.24-0.15,0.44-0.35,0.65-0.52c0.52,0.58,1.06,1.15,1.59,1.71c-0.37-0.01-0.75,0-1.12,0
	c-0.1-0.06-0.16-0.15-0.24-0.23C21.97,16.8,21.67,16.48,21.4,16.14z"/>
</svg>
