<svg xmlns="http://www.w3.org/2000/svg" viewBox="3939.298 -13867.7 40.335 31.4">
  <defs>
    <style>
      .cls-1, .cls-3, .cls-4 {
        fill: none;
        stroke-miterlimit: 10;
        stroke-width: 1.4px;
      }

      .cls-1, .cls-3 {
        stroke: #214796;
      }

      .cls-2 {
        fill: #214796;
      }

      .cls-3, .cls-4 {
        stroke-linecap: round;
      }

      .cls-4 {
        stroke: #214796;
      }
    </style>
  </defs>
  <g id="Group_16557" data-name="Group 16557" transform="translate(3663.699 -14381)">
    <path id="Path_2250" data-name="Path 2250" class="cls-1" d="M38.94,51.681H6a3,3,0,0,1-3-3V43.3a3,3,0,0,1,3-3H38.94a3,3,0,0,1,3,3v5.441A2.994,2.994,0,0,1,38.94,51.681Z" transform="translate(273.299 492.319)"/>
    <circle id="Ellipse_607" data-name="Ellipse 607" class="cls-2" cx="1.947" cy="1.947" r="1.947" transform="translate(280.043 536.363)"/>
    <circle id="Ellipse_608" data-name="Ellipse 608" class="cls-2" cx="1.947" cy="1.947" r="1.947" transform="translate(285.783 536.363)"/>
    <line id="Line_2714" data-name="Line 2714" class="cls-3" y2="14.925" transform="translate(304.751 517.694)"/>
    <path id="Path_2251" data-name="Path 2251" class="cls-4" d="M48.06,10.338A5.152,5.152,0,0,1,48.06,3" transform="translate(251.5 511)"/>
    <path id="Path_2252" data-name="Path 2252" class="cls-4" d="M70.4,3a5.152,5.152,0,0,1,0,7.338" transform="translate(239.543 511)"/>
  </g>
</svg>
