<svg xmlns="http://www.w3.org/2000/svg" viewBox="4136.3 -13867.7 17.382 31.4">
  <defs>
    <style>
      .cls-1, .cls-2, .cls-3, .cls-4 {
        fill: none;
        stroke-width: 1.4px;
      }

      .cls-1, .cls-2 {
        stroke: #214796;
      }

      .cls-1, .cls-2, .cls-3 {
        stroke-miterlimit: 10;
      }

      .cls-2, .cls-3, .cls-4 {
        stroke-linecap: round;
      }

      .cls-3, .cls-4 {
        stroke: #214796;
      }
    </style>
  </defs>
  <g id="Group_16542" data-name="Group 16542" transform="translate(3927 -15122)">
    <path id="Path_6015" data-name="Path 6015" class="cls-1" d="M13.658,39.8H8.767A4.47,4.47,0,0,1,4.3,35.331V21.967A4.47,4.47,0,0,1,8.767,17.5H13.7a4.47,4.47,0,0,1,4.467,4.467V35.292A4.487,4.487,0,0,1,13.658,39.8Z" transform="translate(206.778 1243.662)"/>
    <line id="Line_3416" data-name="Line 3416" class="cls-2" x2="10.745" transform="translate(212.619 1255)"/>
    <line id="Line_3417" data-name="Line 3417" class="cls-2" y1="5.815" transform="translate(214.39 1255.231)"/>
    <line id="Line_3418" data-name="Line 3418" class="cls-2" y1="5.815" transform="translate(221.592 1255.231)"/>
    <path id="Path_6016" data-name="Path 6016" class="cls-2" d="M20.886,13.749h-.039A.855.855,0,0,1,20,12.9v-.655a.855.855,0,0,1,.847-.847h.039a.855.855,0,0,1,.847.847V12.9A.855.855,0,0,1,20.886,13.749Z" transform="translate(197.125 1247.413)"/>
    <line id="Line_3420" data-name="Line 3420" class="cls-3" y2="8.087" transform="translate(221.669 1264.204)"/>
    <line id="Line_3421" data-name="Line 3421" class="cls-3" y2="3.119" transform="translate(221.669 1274.525)"/>
    <path id="Path_6017" data-name="Path 6017" class="cls-4" d="M0,0H8.588" transform="translate(213.697 1285)"/>
    <line id="Line_3419" data-name="Line 3419" class="cls-2" x2="15.982" transform="translate(210 1272.291)"/>
  </g>
</svg>
