<?xml version="1.0" encoding="utf-8"?>
<!-- Generator: Adobe Illustrator 23.0.4, SVG Export Plug-In . SVG Version: 6.00 Build 0)  -->
<svg version="1.1" id="Layer_1" xmlns="http://www.w3.org/2000/svg" xmlns:xlink="http://www.w3.org/1999/xlink" x="0px" y="0px"
	 viewBox="0 0 20 20" style="enable-background:new 0 0 20 20;" xml:space="preserve">
<style type="text/css">
	.st0{fill:#006DAC;}
	.st1{fill:none;stroke:#006DAC;stroke-width:1.4;}
	.st2{fill:none;stroke:#006DAC;stroke-width:1.4;stroke-linecap:round;}
</style>
<path class="st0" d="M10.21,14.96v-4.88c0-0.38,0.19-0.56,0.56-0.56s0.56,0.19,0.56,0.56v4.88c0,0.38-0.19,0.56-0.56,0.56
	S10.21,15.33,10.21,14.96z"/>
<path class="st0" d="M8.71,10.85l1.48-1.15c0.3-0.23,0.56-0.2,0.79,0.1c0.23,0.3,0.2,0.56-0.1,0.79L9.4,11.73
	c-0.3,0.23-0.56,0.2-0.79-0.1C8.38,11.34,8.41,11.08,8.71,10.85z"/>
<path class="st1" d="M1.7,16.27V5.02c0-0.64,0.22-1.18,0.67-1.63S3.36,2.72,4,2.72h12c0.64,0,1.18,0.22,1.63,0.67
	s0.67,0.99,0.67,1.63v11.25c0,0.64-0.22,1.18-0.67,1.63c-0.45,0.45-0.99,0.67-1.63,0.67H4c-0.64,0-1.18-0.22-1.63-0.67
	C1.92,17.45,1.7,16.91,1.7,16.27z"/>
<line class="st1" x1="1.56" y1="7.46" x2="18.44" y2="7.46"/>
<line class="st2" x1="14.49" y1="1" x2="14.49" y2="3.78"/>
<line class="st2" x1="5.87" y1="1" x2="5.87" y2="3.78"/>
</svg>
