<svg id="Group_16431" data-name="Group 16431" xmlns="http://www.w3.org/2000/svg" viewBox="0 0 50.969 26">
  <defs>
    <style>
      .cls-1 {
        fill: #2b3990;
      }

      .cls-2 {
        fill: #fff;
      }
    </style>
  </defs>
  <path id="Path_152" data-name="Path 152" class="cls-1" d="M13,0A13,13,0,1,0,26,13,12.986,12.986,0,0,0,13,0Z" transform="translate(0 0)"/>
  <path id="Path_153" data-name="Path 153" class="cls-2" d="M20.362,29.495h-.445c-.82,0-1.265.468-1.265,1.382V35.35c0,1.148-.4,1.546-1.312,1.546a2.112,2.112,0,0,1-1.757-.89,1.493,1.493,0,0,0-.984,1.5c0,1.195,1.124,1.921,3.209,1.921,2.53,0,3.865-1.265,3.865-4.052V30.9C21.65,29.963,21.205,29.495,20.362,29.495Zm3.912,2.272h-.3c-.726,0-1.288.351-1.288,1.382v4.778c0,1.054.539,1.382,1.312,1.382h.3c.726,0,1.265-.351,1.265-1.382V33.149C25.562,32.071,25.047,31.767,24.274,31.767ZM24.11,28.3a1.317,1.317,0,0,0-1.5,1.335,1.36,1.36,0,0,0,1.546,1.359,1.322,1.322,0,0,0,1.5-1.359C25.656,28.792,25.07,28.3,24.11,28.3Zm6.324,3.4a3.747,3.747,0,0,0-4.076,3.865,3.7,3.7,0,0,0,4.029,3.912,3.892,3.892,0,1,0,.047-7.777Zm-.047,5.575A1.7,1.7,0,1,1,32,35.585,1.608,1.608,0,0,1,30.387,37.271Z" transform="translate(-11.18 -21.671)"/>
  <g id="Group_7130" data-name="Group 7130" transform="translate(28.717 8.315)">
    <g id="Group_7129" data-name="Group 7129">
      <path id="Path_154" data-name="Path 154" class="cls-1" d="M125.494,36.134a1.826,1.826,0,0,1,.656.679,2.521,2.521,0,0,1,.234,1.077,2.638,2.638,0,0,1-.211,1.1,1.538,1.538,0,0,1-.632.7,1.912,1.912,0,0,1-.984.234H122.8V35.9h1.757A1.856,1.856,0,0,1,125.494,36.134Zm-.539,2.9a.736.736,0,0,0,.351-.4,1.461,1.461,0,0,0,.141-.679,1.34,1.34,0,0,0-.3-.984,1.119,1.119,0,0,0-.867-.3h-.609v2.483h.773A1.276,1.276,0,0,0,124.955,39.039Z" transform="translate(-122.753 -35.806)"/>
      <path id="Path_155" data-name="Path 155" class="cls-1" d="M142.013,35.9v4.052H141.1V35.9Z" transform="translate(-136.767 -35.806)"/>
      <path id="Path_156" data-name="Path 156" class="cls-1" d="M150.581,35.664a1.376,1.376,0,0,1,.609.469,1.321,1.321,0,0,1,.281.726h-.89a.736.736,0,0,0-.3-.445.97.97,0,0,0-.539-.141.9.9,0,0,0-.609.187,1,1,0,0,0-.351.468,2.1,2.1,0,0,0-.117.7,2.064,2.064,0,0,0,.117.679,1.062,1.062,0,0,0,.351.492,1.044,1.044,0,0,0,.609.187.959.959,0,0,0,.656-.211.835.835,0,0,0,.281-.609h-.867v-.679h1.686v.422a1.968,1.968,0,0,1-.281,1.1,1.48,1.48,0,0,1-.679.586,2.16,2.16,0,0,1-.843.164,1.925,1.925,0,0,1-1.733-1.031,2.359,2.359,0,0,1-.258-1.077,2.445,2.445,0,0,1,.234-1.1,1.87,1.87,0,0,1,.7-.773,1.97,1.97,0,0,1,1.054-.281A2.016,2.016,0,0,1,150.581,35.664Z" transform="translate(-141.821 -35.5)"/>
      <path id="Path_157" data-name="Path 157" class="cls-1" d="M168.114,35.9v4.052H167.2V35.9Z" transform="translate(-156.753 -35.806)"/>
      <path id="Path_158" data-name="Path 158" class="cls-1" d="M176.85,35.9v.773h-1.218v3.279h-.914V36.673H173.5V35.9Z" transform="translate(-161.578 -35.806)"/>
      <path id="Path_159" data-name="Path 159" class="cls-1" d="M188.783,35.9l1.522,4.052h-.96l-.3-.867h-1.5l-.3.867H186.3l1.546-4.052Zm-.492,1.031-.515,1.476h1.031l-.515-1.476Z" transform="translate(-171.379 -35.806)"/>
      <path id="Path_160" data-name="Path 160" class="cls-1" d="M206.214,35.9v3.279h1.968v.773H205.3V35.9Z" transform="translate(-185.929 -35.806)"/>
      <path id="Path_161" data-name="Path 161" class="cls-1" d="M123.514,58.2v3.279h1.968v.773H122.6V58.2Z" transform="translate(-122.6 -52.883)"/>
      <path id="Path_162" data-name="Path 162" class="cls-1" d="M138.414,58.2v4.052H137.5V58.2Z" transform="translate(-134.01 -52.883)"/>
      <path id="Path_163" data-name="Path 163" class="cls-1" d="M148.058,58.2v.773h-1.944v.89H147.8v.726h-1.687v1.663H145.2V58.2Z" transform="translate(-139.906 -52.883)"/>
      <path id="Path_164" data-name="Path 164" class="cls-1" d="M163.145,58.2v.773h-2.132v.843h1.968v.726h-1.968v.937h2.178v.773H160.1V58.2Z" transform="translate(-151.316 -52.883)"/>
    </g>
  </g>
</svg>
