<svg xmlns="http://www.w3.org/2000/svg" viewBox="0 0 31.427 31.395">
  <defs>
    <style>
      .cls-1 {
        fill: none;
        stroke: #214796;
        stroke-linejoin: round;
        stroke-miterlimit: 10;
        stroke-width: 1.4px;
      }
    </style>
  </defs>
  <path id="ic_Home" class="cls-1" d="M18.941,3.454a1.3,1.3,0,0,0-1.886,0l-13.7,12.7c-.616.616-.346,1.616.385,1.616h3.5v14.24A1.009,1.009,0,0,0,8.28,33.05h5a.509.509,0,0,0,.5-.5V24.775A.994.994,0,0,1,14.823,23.7h6.235a1.01,1.01,0,0,1,1.078,1.078V32.55a.509.509,0,0,0,.5.5h5a.983.983,0,0,0,1-1.078v-14.2h3.618c.77,0,1.039-.885.423-1.539Z" transform="translate(-2.302 -2.355)"/>
</svg>
