<?xml version="1.0" encoding="utf-8"?>
<!-- Generator: Adobe Illustrator 23.0.2, SVG Export Plug-In . SVG Version: 6.00 Build 0)  -->
<svg version="1.1" id="Layer_1" xmlns="http://www.w3.org/2000/svg" xmlns:xlink="http://www.w3.org/1999/xlink" x="0px" y="0px"
	 viewBox="0 0 22 22" style="enable-background:new 0 0 22 22;" xml:space="preserve">
<style type="text/css">
	.st0{fill:#214796;}
	.st1{fill:none;stroke:#214796;stroke-width:1.4;stroke-linejoin:round;}
	.st2{fill:#FFFFFF;}
</style>
<path class="st0" d="M20.7,10.7c0,5.52-4.46,10-10,10s-10-4.48-10-10s4.46-10,10-10C16.24,0.7,20.7,5.18,20.7,10.7"/>
<path class="st1" d="M20.7,10.7c0,5.52-4.46,10-10,10s-10-4.48-10-10s4.46-10,10-10C16.24,0.7,20.7,5.18,20.7,10.7"/>
<path class="st2" d="M16.9,10.38V6.63c0-0.72-0.5-1.31-1.18-1.45L14.37,5c-1.99-0.18-5.2-0.18-7.15,0l-1.4,0.18
	C5.13,5.32,4.64,5.9,4.64,6.63v3.76c0,0-0.23,3.98,5.25,7.01c0.54,0.32,1.22,0.32,1.81,0c0.41-0.23,0.77-0.45,1.09-0.68l-4.3-4.03
	c-0.18-0.18-0.27-0.45-0.14-0.68c0.09-0.23,0.32-0.41,0.59-0.41h0.86c0.63,0,1.22-0.41,1.45-0.95H8.08c-0.36,0-0.63-0.27-0.63-0.63
	c0-0.36,0.27-0.63,0.63-0.63h3.17c-0.27-0.54-0.81-0.95-1.45-0.95H8.12H8.08c-0.36,0-0.63-0.27-0.63-0.63s0.27-0.63,0.63-0.63h0.05
	h1.67h3.44c0.36,0,0.63,0.27,0.63,0.63s-0.27,0.63-0.63,0.63h-1.04c0.18,0.27,0.32,0.59,0.41,0.95h0.63c0.36,0,0.63,0.27,0.63,0.63
	c0,0.36-0.27,0.63-0.63,0.63H12.6c-0.23,1.04-1.09,1.9-2.13,2.13l3.35,3.17C17.08,13.23,16.9,10.38,16.9,10.38"/>
</svg>
