<svg xmlns="http://www.w3.org/2000/svg" viewBox="4225.3 -13950.7 21.934 31.4">
  <defs>
    <style>
      .cls-1, .cls-2, .cls-3 {
        fill: none;
        stroke-miterlimit: 10;
      }

      .cls-1 {
        stroke: #214796;
      }

      .cls-1, .cls-3 {
        stroke-width: 1.4px;
      }

      .cls-2, .cls-3 {
        stroke: #214796;
      }

      .cls-2 {
        stroke-width: 0.587px;
      }

      .cls-3 {
        stroke-linecap: round;
      }
    </style>
  </defs>
  <g id="Group_16554" data-name="Group 16554" transform="translate(3874 -20414)">
    <path id="Path_2241" data-name="Path 2241" class="cls-1" d="M12,1.8a38.973,38.973,0,0,0-4.107.209,8.77,8.77,0,0,0-2.784.7A4.46,4.46,0,0,0,3.44,4.236a10.188,10.188,0,0,0-.7,1.671,15.608,15.608,0,0,0-.418,2.088,37.6,37.6,0,0,0-.487,4.176S1.7,15.651,1.7,16v1.879s.07,2.645.139,3.341a37.6,37.6,0,0,0,.974,6.543A4.9,4.9,0,0,0,4.9,30.825a7.132,7.132,0,0,0,2.715.766S9.844,31.8,12,31.8h-.07c2.088,0,4.385-.209,4.385-.209a7.132,7.132,0,0,0,2.715-.766,4.9,4.9,0,0,0,2.088-3.063,37.6,37.6,0,0,0,.974-6.543c.07-.7.139-3.341.139-3.341V16c0-.348-.139-3.828-.139-3.828a37.6,37.6,0,0,0-.487-4.176c-.209-1.183-.418-2.088-.418-2.088a7.687,7.687,0,0,0-.7-1.671A4.46,4.46,0,0,0,18.823,2.7a8.77,8.77,0,0,0-2.784-.7A38.973,38.973,0,0,0,11.932,1.8" transform="translate(350.3 6462.2)"/>
    <path id="Path_2242" data-name="Path 2242" class="cls-2" d="M15.707,33.428a1.456,1.456,0,0,0,1.462-1.6,1.513,1.513,0,0,0-.766-1.183.068.068,0,0,1-.07-.07c-.07-.07-.139-.139-.07-.209a.131.131,0,0,1,.209,0,1.524,1.524,0,0,1,.7.626,1.779,1.779,0,0,1-.139,2.088,1.831,1.831,0,0,1-2.019.487,1.771,1.771,0,0,1-1.114-1.81,1.745,1.745,0,0,1,.9-1.392c.07-.07.209-.139.278,0s-.07.209-.139.209a1.458,1.458,0,0,0-.766,1.044A1.543,1.543,0,0,0,15.707,33.428Z" transform="translate(346.595 6453.542)"/>
    <path id="Path_2243" data-name="Path 2243" class="cls-2" d="M16.518,30.6v1.183c0,.139,0,.209-.209.209a.185.185,0,0,1-.209-.209,16.962,16.962,0,0,1,.07-1.879c0-.07.07-.209.139-.209.139,0,.139.07.139.209a2.611,2.611,0,0,1,.07.7Z" transform="translate(345.923 6453.72)"/>
    <path id="Path_2244" data-name="Path 2244" class="cls-3" d="M19.92,36.37H17.484a2.228,2.228,0,0,0-1.323.487l-1.044.9a2.621,2.621,0,0,1-1.323.557h0a2.319,2.319,0,0,1-1.323-.557l-1.114-.974a2.228,2.228,0,0,0-1.323-.487H7.6" transform="translate(348.507 6451.714)"/>
  </g>
</svg>
