<svg xmlns="http://www.w3.org/2000/svg" viewBox="1294.471 -13248.449 30 30">
  <defs>
    <style>
      .cls-1 {
        fill: #fff;
      }

      .cls-2 {
        fill: #e30513;
      }
    </style>
  </defs>
  <g id="Group_17452" data-name="Group 17452" transform="translate(1294.471 -13248.449)">
    <ellipse id="Ellipse_3986" data-name="Ellipse 3986" class="cls-1" cx="13.421" cy="13.421" rx="13.421" ry="13.421" transform="translate(1.579 1.579)"/>
    <g id="Group_15969" data-name="Group 15969" transform="translate(0 0)">
      <path id="Path_6444" data-name="Path 6444" class="cls-2" d="M41.543,27.5A1.83,1.83,0,0,0,39.7,29.445a1.8,1.8,0,0,0,1.843,1.945,1.83,1.83,0,0,0,1.843-1.945A1.8,1.8,0,0,0,41.543,27.5Z" transform="translate(-19.376 -13.421)"/>
      <path id="Path_6445" data-name="Path 6445" class="cls-2" d="M15,0A15,15,0,1,0,30,15,14.988,14.988,0,0,0,15,0ZM12.082,15.87c0,3.225-1.536,4.659-4.454,4.659-2.406,0-3.686-.87-3.686-2.2a1.771,1.771,0,0,1,1.126-1.741,2.522,2.522,0,0,0,2.048,1.024c1.075,0,1.485-.461,1.485-1.792V10.648c0-1.075.512-1.587,1.485-1.587H10.6c.973,0,1.485.512,1.485,1.587Zm4.505,2.918c0,1.177-.614,1.587-1.433,1.587H14.8c-.922,0-1.536-.358-1.536-1.587V13.259c0-1.229.614-1.587,1.485-1.587H15.1c.922,0,1.485.358,1.485,1.587Zm-1.638-8.038c-1.126,0-1.792-.614-1.792-1.587s.666-1.536,1.741-1.536c1.126,0,1.792.563,1.792,1.536C16.741,10.188,16.024,10.751,14.949,10.751Zm7.218,9.778c-2.867,0-4.659-1.741-4.659-4.505,0-2.662,1.894-4.454,4.71-4.454a4.315,4.315,0,0,1,4.659,4.505C26.877,18.788,24.983,20.529,22.167,20.529Z" transform="translate(0 0)"/>
    </g>
  </g>
</svg>
