<svg xmlns="http://www.w3.org/2000/svg" viewBox="3944.3 -13950.741 31.443 31.441">
  <defs>
    <style>
      .cls-1, .cls-2, .cls-3, .cls-4 {
        fill: none;
        stroke-width: 1.4px;
      }

      .cls-1 {
        stroke: #d7d7d7;
      }

      .cls-2, .cls-4 {
        stroke: #214796;
      }

      .cls-2, .cls-3, .cls-4 {
        stroke-linecap: round;
        stroke-miterlimit: 10;
      }

      .cls-2 {
        stroke-linejoin: bevel;
      }

      .cls-3 {
        stroke: #214796;
        stroke-linejoin: round;
      }
    </style>
  </defs>
  <g id="Group_16543" data-name="Group 16543" transform="translate(3815 -14545)">
    <path id="Path_2336" data-name="Path 2336" class="cls-1" d="M15,0A15,15,0,1,1,0,15,15,15,0,0,1,15,0Z" transform="translate(130 595)"/>
    <line id="Line_3026" data-name="Line 3026" class="cls-2" x1="1" y2="5.929" transform="translate(131.114 617.197)"/>
    <line id="Line_3027" data-name="Line 3027" class="cls-2" x2="6.286" y2="0.994" transform="translate(132.114 617.197)"/>
    <line id="Line_3028" data-name="Line 3028" class="cls-3" x2="8.572" transform="translate(140.736 603.187)"/>
    <line id="Line_3029" data-name="Line 3029" class="cls-3" x2="8.572" transform="translate(140.736 606.915)"/>
    <path id="Path_2334" data-name="Path 2334" class="cls-3" d="M39.807,39.521l-5.179-5.965h1.429a3.739,3.739,0,0,0,3.75-3.728h0a3.739,3.739,0,0,0-3.75-3.728H33.2" transform="translate(107.5 577.087)"/>
    <path id="Path_2335" data-name="Path 2335" class="cls-4" d="M5.822,26.069a15.052,15.052,0,0,0,25.93-1.314,14.856,14.856,0,0,0-6.5-20.06,15.028,15.028,0,0,0-20.18,6.426A14.355,14.355,0,0,0,3.5,16.376" transform="translate(126.592 591.959)"/>
  </g>
</svg>
