<svg xmlns="http://www.w3.org/2000/svg" xmlns:xlink="http://www.w3.org/1999/xlink" viewBox="0 0 72 72">
  <defs>
    <style>
      .cls-1, .cls-4 {
        fill: #fff;
      }

      .cls-1 {
        stroke: #95989a;
      }

      .cls-2 {
        clip-path: url(#clip-path);
      }

      .cls-3 {
        fill: #e30513;
      }
    </style>
    <clipPath id="clip-path">
      <rect id="Rectangle_3916" data-name="Rectangle 3916" class="cls-1" width="72" height="72" transform="translate(152 64)"/>
    </clipPath>
  </defs>
  <g id="Mask_Group_175" data-name="Mask Group 175" class="cls-2" transform="translate(-152 -64)">
    <g id="Group_17071" data-name="Group 17071" transform="translate(95 -264)">
      <path id="Path_11704" data-name="Path 11704" class="cls-3" d="M2123.3,0a20,20,0,1,0,20,20A20,20,0,0,0,2123.3,0Z" transform="translate(-2030.3 344)"/>
      <path id="Path_11705" data-name="Path 11705" class="cls-4" d="M2138.355,52.667h-.663c-1.265,0-1.948.723-1.948,2.149v6.867c0,1.767-.6,2.39-2.007,2.39a3.349,3.349,0,0,1-2.711-1.365,2.314,2.314,0,0,0-1.526,2.309c0,1.847,1.727,2.972,4.92,2.972,3.9,0,5.944-1.948,5.944-6.245V54.8C2140.364,53.37,2139.68,52.667,2138.355,52.667Zm6.024,3.474h-.462c-1.124,0-1.987.522-1.987,2.149v7.369c0,1.627.823,2.149,2.027,2.149h.462c1.125,0,1.928-.562,1.928-2.149V58.29C2146.368,56.623,2145.584,56.141,2144.379,56.141Zm-.241-5.341a2.061,2.061,0,0,0-2.33,2.068c0,1.285.924,2.088,2.39,2.088a2.065,2.065,0,0,0,2.33-2.088C2146.528,51.583,2145.6,50.8,2144.138,50.8Zm9.719,5.221c-3.775,0-6.285,2.39-6.285,5.964,0,3.655,2.41,6,6.225,6,3.775,0,6.264-2.349,6.264-5.984C2160.062,58.431,2157.592,56.021,2153.857,56.021Zm-.041,8.594a2.624,2.624,0,1,1,2.49-2.61A2.482,2.482,0,0,1,2153.817,64.615Z" transform="translate(-2051.239 303.401)"/>
    </g>
  </g>
</svg>
