<svg xmlns="http://www.w3.org/2000/svg" viewBox="-1269 474 45 35">
  <defs>
    <style>
      .cls-1, .cls-3 {
        fill: none;
      }

      .cls-1 {
        stroke: #214796;
        stroke-linejoin: round;
        stroke-miterlimit: 10;
        stroke-width: 1.4px;
      }

      .cls-2 {
        fill: #214796;
      }
    </style>
  </defs>
  <g id="Group_11080" data-name="Group 11080" transform="translate(-1297 169)">
    <g id="Group_7782" data-name="Group 7782" transform="translate(-351.6 -5559)">
      <path id="Path_2215" data-name="Path 2215" class="cls-1" d="M21.385,48H4.308A2.314,2.314,0,0,1,2,45.693V30.308A2.314,2.314,0,0,1,4.308,28H21.385a2.314,2.314,0,0,1,2.308,2.308V45.693A2.314,2.314,0,0,1,21.385,48Z" transform="translate(389.6 5848)"/>
      <path id="Path_2216" data-name="Path 2216" class="cls-1" d="M26.6,12V7.5a5.77,5.77,0,0,0-6-5.5,5.77,5.77,0,0,0-6,5.5V12" transform="translate(381.846 5864)"/>
      <path id="Path_2217" data-name="Path 2217" class="cls-2" d="M28.608,49.754A2.654,2.654,0,1,1,25.954,47.1,2.659,2.659,0,0,1,28.608,49.754Z" transform="translate(376.492 5836.246)"/>
    </g>
    <rect id="Rectangle_3607" data-name="Rectangle 3607" class="cls-3" width="45" height="35" transform="translate(28 305)"/>
  </g>
</svg>
