<svg xmlns="http://www.w3.org/2000/svg" viewBox="0 0 70.111 22.957">
  <defs>
    <style>
      .cls-1 {
        fill: #283c93;
      }

      .cls-2, .cls-4, .cls-6 {
        fill: none;
        stroke-miterlimit: 10;
        stroke-width: 0.094px;
      }

      .cls-2 {
        stroke: #283c93;
      }

      .cls-3 {
        fill: #ea2228;
      }

      .cls-4 {
        stroke: #ea2228;
      }

      .cls-5 {
        fill: #fff;
      }

      .cls-6 {
        stroke: #fff;
      }
    </style>
  </defs>
  <g id="Group_17689" data-name="Group 17689" transform="translate(-0.144 -0.041)">
    <g id="Group_17689-2" data-name="Group 17689" transform="translate(0.2 0.2)">
      <path id="Path_11779" data-name="Path 11779" class="cls-1" d="M832.36,3.112c.47-.968.92-1.943,1.4-2.912.124.989.263,1.971.4,2.96.954-.325,1.881-.7,2.849-.975-.678.83-1.335,1.681-1.985,2.531.712.567,1.425,1.107,2.123,1.667-.954.1-1.909.152-2.863.228-.035,1.017-.1,2.04-.159,3.064-.553-.733-1.058-1.494-1.584-2.241-.8.726-1.6,1.452-2.365,2.2.3-1.037.595-2.075.885-3.105-.92-.118-1.847-.242-2.766-.367.9-.5,1.805-1.024,2.7-1.542-.367-.885-.747-1.764-1.1-2.649.809.387,1.646.733,2.462,1.141" transform="translate(-771.027 -0.2)"/>
      <path id="Path_11780" data-name="Path 11780" class="cls-2" d="M832.36,3.112c.47-.968.92-1.943,1.4-2.912.124.989.263,1.971.4,2.96.954-.325,1.881-.7,2.849-.975-.678.83-1.335,1.681-1.985,2.531.712.567,1.425,1.107,2.123,1.667-.954.1-1.909.152-2.863.228-.035,1.017-.1,2.04-.159,3.064-.553-.733-1.058-1.494-1.584-2.241-.8.726-1.6,1.452-2.365,2.2.3-1.037.595-2.075.885-3.105-.92-.118-1.847-.242-2.766-.367.9-.5,1.805-1.024,2.7-1.542-.367-.885-.747-1.764-1.1-2.649C830.707,2.358,831.544,2.7,832.36,3.112Z" transform="translate(-771.027 -0.2)"/>
      <path id="Path_11781" data-name="Path 11781" class="cls-1" d="M360.233,122.973c.8-.069,1.6-.118,2.4-.173q-.861,4.6-1.736,9.164a5.863,5.863,0,0,1-2.082,3.638,6.654,6.654,0,0,1-4.35,1.093,4.844,4.844,0,0,1-3.6-1.6,4.5,4.5,0,0,1-.519-4.053,5.586,5.586,0,0,1,3.237-3.638c1.847-.837,3.928-.705,5.906-.643q.373-1.909.74-3.79" transform="translate(-325.901 -114.321)"/>
      <path id="Path_11782" data-name="Path 11782" class="cls-2" d="M360.233,122.973c.8-.069,1.6-.118,2.4-.173q-.861,4.6-1.736,9.164a5.863,5.863,0,0,1-2.082,3.638,6.654,6.654,0,0,1-4.35,1.093,4.844,4.844,0,0,1-3.6-1.6,4.5,4.5,0,0,1-.519-4.053,5.586,5.586,0,0,1,3.237-3.638c1.847-.837,3.928-.705,5.906-.643Q359.867,124.854,360.233,122.973Z" transform="translate(-325.901 -114.321)"/>
      <path id="Path_11783" data-name="Path 11783" class="cls-3" d="M659.68,142.847A59.881,59.881,0,0,0,666.34,136a18.814,18.814,0,0,1-5.166,8.445,16.166,16.166,0,0,1-1.743,1.39,13.121,13.121,0,0,1-7.131,2.372l.055-.048a44.223,44.223,0,0,0,5.74-3.949c.526-.443,1.086-.871,1.584-1.362" transform="translate(-607.2 -126.608)"/>
      <path id="Path_11784" data-name="Path 11784" class="cls-4" d="M659.68,142.847A59.881,59.881,0,0,0,666.34,136a18.814,18.814,0,0,1-5.166,8.445,16.166,16.166,0,0,1-1.743,1.39,13.121,13.121,0,0,1-7.131,2.372l.055-.048a44.223,44.223,0,0,0,5.74-3.949C658.621,143.767,659.182,143.338,659.68,142.847Z" transform="translate(-607.2 -126.608)"/>
      <path id="Path_11785" data-name="Path 11785" class="cls-1" d="M171.019,180.988a6.6,6.6,0,0,1,4,.664,3.386,3.386,0,0,1,1.667,2.448,5.754,5.754,0,0,1-1.01,3.928,7,7,0,0,1-5.166,2.856,6.6,6.6,0,0,1-3.908-.7,3.381,3.381,0,0,1-1.653-2.552,5.84,5.84,0,0,1,1.307-4.191,7.113,7.113,0,0,1,4.765-2.455" transform="translate(-153.528 -168.435)"/>
      <path id="Path_11786" data-name="Path 11786" class="cls-2" d="M171.019,180.988a6.6,6.6,0,0,1,4,.664,3.386,3.386,0,0,1,1.667,2.448,5.754,5.754,0,0,1-1.01,3.928,7,7,0,0,1-5.166,2.856,6.6,6.6,0,0,1-3.908-.7,3.381,3.381,0,0,1-1.653-2.552,5.84,5.84,0,0,1,1.307-4.191A7.113,7.113,0,0,1,171.019,180.988Z" transform="translate(-153.528 -168.435)"/>
      <path id="Path_11787" data-name="Path 11787" class="cls-1" d="M523.85,182.536a7.391,7.391,0,0,1,5.326-1.874,4.549,4.549,0,0,1,2.9.865,2.423,2.423,0,0,1,.456,2.836,3.678,3.678,0,0,1-2,1.632,11.393,11.393,0,0,1-6.017.29,2.89,2.89,0,0,0,1.369,2.843,8.858,8.858,0,0,0,5.166.609l-.055.048a7.111,7.111,0,0,1-5.166,1.024,4.744,4.744,0,0,1-3.057-1.667,3.678,3.678,0,0,1-.761-2.621,5.859,5.859,0,0,1,1.833-3.984" transform="translate(-485.915 -168.178)"/>
      <path id="Path_11788" data-name="Path 11788" class="cls-2" d="M523.85,182.536a7.391,7.391,0,0,1,5.326-1.874,4.549,4.549,0,0,1,2.9.865,2.423,2.423,0,0,1,.456,2.836,3.678,3.678,0,0,1-2,1.632,11.393,11.393,0,0,1-6.017.29,2.89,2.89,0,0,0,1.369,2.843,8.858,8.858,0,0,0,5.166.609l-.055.048a7.111,7.111,0,0,1-5.166,1.024,4.744,4.744,0,0,1-3.057-1.667,3.678,3.678,0,0,1-.761-2.621A5.859,5.859,0,0,1,523.85,182.536Z" transform="translate(-485.915 -168.178)"/>
      <path id="Path_11789" data-name="Path 11789" class="cls-1" d="M844.482,180.29a7.3,7.3,0,0,1,4.136.45,3.5,3.5,0,0,1,2.013,2.545,5.659,5.659,0,0,1-.906,3.97,7,7,0,0,1-4.9,2.995,7.2,7.2,0,0,1-4.074-.484,3.484,3.484,0,0,1-1.964-2.421,5.58,5.58,0,0,1,.712-3.8,6.95,6.95,0,0,1,4.987-3.258" transform="translate(-780.701 -167.737)"/>
      <path id="Path_11790" data-name="Path 11790" class="cls-2" d="M844.482,180.29a7.3,7.3,0,0,1,4.136.45,3.5,3.5,0,0,1,2.013,2.545,5.659,5.659,0,0,1-.906,3.97,7,7,0,0,1-4.9,2.995,7.2,7.2,0,0,1-4.074-.484,3.484,3.484,0,0,1-1.964-2.421,5.58,5.58,0,0,1,.712-3.8A6.95,6.95,0,0,1,844.482,180.29Z" transform="translate(-780.701 -167.737)"/>
      <path id="Path_11791" data-name="Path 11791" class="cls-1" d="M4.958,182.768a11.987,11.987,0,0,1,3.251-.387,19.628,19.628,0,0,1,3.6.277c-.173.463-.346.913-.491,1.369a17.357,17.357,0,0,0-5.18.152c-.519.138-1.183.346-1.321.954-.021.463.4.726.8.837a21.755,21.755,0,0,1,3.672.83,1.814,1.814,0,0,1,1.093,1.314,3.2,3.2,0,0,1-.768,2.656,5.144,5.144,0,0,1-2.891,1.356,16.2,16.2,0,0,1-6.522-.38c.118-.484.256-.968.367-1.452a16.855,16.855,0,0,0,5.526.138c.692-.152,1.473-.519,1.6-1.286.138-.5-.311-.906-.747-1.037-1.162-.36-2.4-.277-3.534-.7a1.9,1.9,0,0,1-1.162-1.024,2.379,2.379,0,0,1,.664-2.552,5.144,5.144,0,0,1,2.047-1.065" transform="translate(-0.2 -169.779)"/>
      <path id="Path_11792" data-name="Path 11792" class="cls-2" d="M4.958,182.768a11.987,11.987,0,0,1,3.251-.387,19.628,19.628,0,0,1,3.6.277c-.173.463-.346.913-.491,1.369a17.357,17.357,0,0,0-5.18.152c-.519.138-1.183.346-1.321.954-.021.463.4.726.8.837a21.755,21.755,0,0,1,3.672.83,1.814,1.814,0,0,1,1.093,1.314,3.2,3.2,0,0,1-.768,2.656,5.144,5.144,0,0,1-2.891,1.356,16.2,16.2,0,0,1-6.522-.38c.118-.484.256-.968.367-1.452a16.855,16.855,0,0,0,5.526.138c.692-.152,1.473-.519,1.6-1.286.138-.5-.311-.906-.747-1.037-1.162-.36-2.4-.277-3.534-.7a1.9,1.9,0,0,1-1.162-1.024,2.379,2.379,0,0,1,.664-2.552A5.144,5.144,0,0,1,4.958,182.768Z" transform="translate(-0.2 -169.779)"/>
      <path id="Path_11793" data-name="Path 11793" class="cls-1" d="M684.7,182.4c.747,0,1.508.014,2.248,0,.92,1.245,1.909,2.441,2.939,3.583l-.048.055c-.491.491-1.058.92-1.584,1.369A50.824,50.824,0,0,1,684.7,182.4" transform="translate(-637.359 -169.799)"/>
      <path id="Path_11794" data-name="Path 11794" class="cls-2" d="M684.7,182.4c.747,0,1.508.014,2.248,0,.92,1.245,1.909,2.441,2.939,3.583l-.048.055c-.491.491-1.058.92-1.584,1.369A50.824,50.824,0,0,1,684.7,182.4Z" transform="translate(-637.359 -169.799)"/>
      <path id="Path_11795" data-name="Path 11795" class="cls-5" d="M388.992,203.109a7.582,7.582,0,0,1,4.343-.519c-.263,1.217-.491,2.441-.747,3.645a3.587,3.587,0,0,1-1.024,2.1,3.435,3.435,0,0,1-2.76.712,2.04,2.04,0,0,1-1.688-1.01,3.317,3.317,0,0,1-.055-2.351,3.948,3.948,0,0,1,1.93-2.573" transform="translate(-360.131 -188.509)"/>
      <path id="Path_11796" data-name="Path 11796" class="cls-6" d="M388.992,203.109a7.582,7.582,0,0,1,4.343-.519c-.263,1.217-.491,2.441-.747,3.645a3.587,3.587,0,0,1-1.024,2.1,3.435,3.435,0,0,1-2.76.712,2.04,2.04,0,0,1-1.688-1.01,3.317,3.317,0,0,1-.055-2.351A3.948,3.948,0,0,1,388.992,203.109Z" transform="translate(-360.131 -188.509)"/>
      <path id="Path_11797" data-name="Path 11797" class="cls-5" d="M565.589,202.841a4.085,4.085,0,0,1,2.656-.29,1.037,1.037,0,0,1,.816.913,1.52,1.52,0,0,1-1.148,1.508,9.244,9.244,0,0,1-4.412.118,4.336,4.336,0,0,1,2.089-2.248" transform="translate(-524.541 -188.455)"/>
      <path id="Path_11798" data-name="Path 11798" class="cls-6" d="M565.589,202.841a4.085,4.085,0,0,1,2.656-.29,1.037,1.037,0,0,1,.816.913,1.52,1.52,0,0,1-1.148,1.508,9.244,9.244,0,0,1-4.412.118A4.336,4.336,0,0,1,565.589,202.841Z" transform="translate(-524.541 -188.455)"/>
      <path id="Path_11799" data-name="Path 11799" class="cls-5" d="M206.18,205.115a3.005,3.005,0,0,1,2.594.463,2.417,2.417,0,0,1,.692,2.1,4.761,4.761,0,0,1-.954,2.379,3.925,3.925,0,0,1-3.2,1.508,2.5,2.5,0,0,1-1.847-.657,2.012,2.012,0,0,1-.519-1.286,4.466,4.466,0,0,1,3.23-4.509" transform="translate(-188.924 -190.847)"/>
      <path id="Path_11800" data-name="Path 11800" class="cls-6" d="M206.18,205.115a3.005,3.005,0,0,1,2.594.463,2.417,2.417,0,0,1,.692,2.1,4.761,4.761,0,0,1-.954,2.379,3.925,3.925,0,0,1-3.2,1.508,2.5,2.5,0,0,1-1.847-.657,2.012,2.012,0,0,1-.519-1.286A4.466,4.466,0,0,1,206.18,205.115Z" transform="translate(-188.924 -190.847)"/>
      <path id="Path_11801" data-name="Path 11801" class="cls-5" d="M880.865,204.858a3.071,3.071,0,0,1,2.483.38,2.172,2.172,0,0,1,.837,1.75,4.421,4.421,0,0,1-2.594,4.129,3.886,3.886,0,0,1-2.884.055,1.842,1.842,0,0,1-1.134-1.556,4.506,4.506,0,0,1,3.292-4.758" transform="translate(-816.876 -190.611)"/>
      <path id="Path_11802" data-name="Path 11802" class="cls-6" d="M880.865,204.858a3.071,3.071,0,0,1,2.483.38,2.172,2.172,0,0,1,.837,1.75,4.421,4.421,0,0,1-2.594,4.129,3.886,3.886,0,0,1-2.884.055,1.842,1.842,0,0,1-1.134-1.556A4.506,4.506,0,0,1,880.865,204.858Z" transform="translate(-816.876 -190.611)"/>
      <path id="Path_11803" data-name="Path 11803" class="cls-1" d="M755.3,259.49a18.052,18.052,0,0,0,1.743-1.39c1.411,1.556,2.85,3.085,4.281,4.613-1-.021-2.013.014-3.008-.014a4.206,4.206,0,0,1-.657-.609c-.816-.837-1.618-1.688-2.358-2.6" transform="translate(-703.076 -240.263)"/>
      <path id="Path_11804" data-name="Path 11804" class="cls-2" d="M755.3,259.49a18.052,18.052,0,0,0,1.743-1.39c1.411,1.556,2.85,3.085,4.281,4.613-1-.021-2.013.014-3.008-.014a4.206,4.206,0,0,1-.657-.609C756.842,261.254,756.04,260.4,755.3,259.49Z" transform="translate(-703.076 -240.263)"/>
    </g>
  </g>
</svg>
