<?xml version="1.0" encoding="utf-8"?>
<!-- Generator: Adobe Illustrator 23.0.2, SVG Export Plug-In . SVG Version: 6.00 Build 0)  -->
<svg version="1.1" id="Layer_1" xmlns="http://www.w3.org/2000/svg" xmlns:xlink="http://www.w3.org/1999/xlink" x="0px" y="0px"
	 viewBox="0 0 32 32" style="enable-background:new 0 0 32 32;" xml:space="preserve">
<style type="text/css">
	.st0{fill:#283C93;}
	.st1{fill:#FFFFFF;}
	.st2{fill:none;stroke:#FFFFFF;stroke-width:0.094;stroke-miterlimit:10;}
	.st3{fill:none;stroke:#283C93;stroke-width:0.094;stroke-miterlimit:10;}
	.st4{fill:#EA2228;}
	.st5{fill:none;stroke:#EA2228;stroke-width:0.094;stroke-miterlimit:10;}
</style>
<path class="st0" d="M0,28V4c0-1.1,0.39-2.05,1.17-2.83S2.9,0,4,0h24c1.1,0,2.05,0.39,2.83,1.17C31.61,1.95,32,2.9,32,4v24
	c0,1.1-0.39,2.05-1.17,2.83C30.05,31.61,29.1,32,28,32H4c-1.1,0-2.05-0.39-2.83-1.17C0.39,30.05,0,29.1,0,28z"/>
<path class="st1" d="M27.29,10.25c0.2-0.41,0.39-0.83,0.6-1.25c0.05,0.42,0.11,0.84,0.17,1.27c0.41-0.14,0.81-0.3,1.22-0.42
	c-0.29,0.36-0.57,0.72-0.85,1.08c0.31,0.24,0.61,0.47,0.91,0.72c-0.41,0.04-0.82,0.06-1.23,0.1c-0.01,0.43-0.04,0.87-0.07,1.31
	c-0.24-0.32-0.45-0.64-0.68-0.96c-0.34,0.31-0.68,0.62-1.01,0.94c0.13-0.44,0.26-0.89,0.38-1.33c-0.39-0.05-0.79-0.1-1.19-0.16
	c0.38-0.22,0.77-0.44,1.16-0.66c-0.16-0.38-0.32-0.75-0.47-1.13C26.58,9.93,26.94,10.08,27.29,10.25"/>
<path class="st2" d="M27.29,10.25c0.2-0.41,0.39-0.83,0.6-1.25c0.05,0.42,0.11,0.84,0.17,1.27c0.41-0.14,0.81-0.3,1.22-0.42
	c-0.29,0.36-0.57,0.72-0.85,1.08c0.31,0.24,0.61,0.47,0.91,0.72c-0.41,0.04-0.82,0.06-1.23,0.1c-0.01,0.43-0.04,0.87-0.07,1.31
	c-0.24-0.32-0.45-0.64-0.68-0.96c-0.34,0.31-0.68,0.62-1.01,0.94c0.13-0.44,0.26-0.89,0.38-1.33c-0.39-0.05-0.79-0.1-1.19-0.16
	c0.38-0.22,0.77-0.44,1.16-0.66c-0.16-0.38-0.32-0.75-0.47-1.13C26.58,9.93,26.94,10.08,27.29,10.25z"/>
<path class="st1" d="M15.72,12.71c0.34-0.03,0.69-0.05,1.03-0.07c-0.25,1.31-0.49,2.62-0.74,3.93c-0.12,0.59-0.39,1.19-0.89,1.56
	c-0.53,0.4-1.22,0.5-1.87,0.47c-0.57-0.03-1.17-0.22-1.54-0.69c-0.38-0.49-0.4-1.16-0.22-1.74c0.19-0.7,0.72-1.28,1.39-1.56
	c0.79-0.36,1.68-0.3,2.53-0.28C15.5,13.79,15.61,13.25,15.72,12.71"/>
<path class="st2" d="M15.72,12.71c0.34-0.03,0.69-0.05,1.03-0.07c-0.25,1.31-0.49,2.62-0.74,3.93c-0.12,0.59-0.39,1.19-0.89,1.56
	c-0.53,0.4-1.22,0.5-1.87,0.47c-0.57-0.03-1.17-0.22-1.54-0.69c-0.38-0.49-0.4-1.16-0.22-1.74c0.19-0.7,0.72-1.28,1.39-1.56
	c0.79-0.36,1.68-0.3,2.53-0.28C15.5,13.79,15.61,13.25,15.72,12.71z"/>
<path class="st1" d="M8.5,14.38c0.58-0.06,1.2-0.01,1.71,0.29c0.38,0.22,0.65,0.61,0.71,1.05c0.08,0.59-0.1,1.2-0.43,1.68
	c-0.5,0.72-1.35,1.15-2.21,1.22c-0.57,0.04-1.17,0-1.67-0.3c-0.39-0.23-0.66-0.64-0.71-1.09c-0.06-0.64,0.16-1.3,0.56-1.8
	C6.96,14.82,7.72,14.46,8.5,14.38"/>
<path class="st2" d="M8.5,14.38c0.58-0.06,1.2-0.01,1.71,0.29c0.38,0.22,0.65,0.61,0.71,1.05c0.08,0.59-0.1,1.2-0.43,1.68
	c-0.5,0.72-1.35,1.15-2.21,1.22c-0.57,0.04-1.17,0-1.67-0.3c-0.39-0.23-0.66-0.64-0.71-1.09c-0.06-0.64,0.16-1.3,0.56-1.8
	C6.96,14.82,7.72,14.46,8.5,14.38z"/>
<path class="st1" d="M17.26,15.16c0.6-0.58,1.46-0.82,2.28-0.8c0.43,0.01,0.91,0.08,1.25,0.37c0.34,0.3,0.38,0.82,0.2,1.21
	c-0.17,0.34-0.51,0.56-0.86,0.7c-0.82,0.31-1.73,0.28-2.58,0.12c-0.05,0.47,0.16,0.98,0.59,1.22c0.67,0.36,1.48,0.34,2.21,0.26
	l-0.02,0.02c-0.64,0.44-1.46,0.57-2.21,0.44c-0.5-0.08-1-0.31-1.31-0.72c-0.26-0.31-0.36-0.72-0.32-1.12
	C16.51,16.22,16.79,15.59,17.26,15.16"/>
<path class="st2" d="M17.26,15.16c0.6-0.58,1.46-0.82,2.28-0.8c0.43,0.01,0.91,0.08,1.25,0.37c0.34,0.3,0.38,0.82,0.2,1.21
	c-0.17,0.34-0.51,0.56-0.86,0.7c-0.82,0.31-1.73,0.28-2.58,0.12c-0.05,0.47,0.16,0.98,0.59,1.22c0.67,0.36,1.48,0.34,2.21,0.26
	l-0.02,0.02c-0.64,0.44-1.46,0.57-2.21,0.44c-0.5-0.08-1-0.31-1.31-0.72c-0.26-0.31-0.36-0.72-0.32-1.12
	C16.51,16.22,16.79,15.59,17.26,15.16z"/>
<path class="st1" d="M28.34,14.38c0.59-0.08,1.22-0.07,1.77,0.19c0.44,0.2,0.78,0.61,0.86,1.09c0.1,0.59-0.07,1.2-0.39,1.7
	c-0.46,0.72-1.27,1.16-2.1,1.28c-0.59,0.08-1.21,0.05-1.75-0.21c-0.42-0.2-0.75-0.58-0.84-1.04c-0.11-0.56,0.03-1.14,0.31-1.63
	C26.64,15.01,27.47,14.51,28.34,14.38"/>
<path class="st2" d="M28.34,14.38c0.59-0.08,1.22-0.07,1.77,0.19c0.44,0.2,0.78,0.61,0.86,1.09c0.1,0.59-0.07,1.2-0.39,1.7
	c-0.46,0.72-1.27,1.16-2.1,1.28c-0.59,0.08-1.21,0.05-1.75-0.21c-0.42-0.2-0.75-0.58-0.84-1.04c-0.11-0.56,0.03-1.14,0.31-1.63
	C26.64,15.01,27.47,14.51,28.34,14.38z"/>
<path class="st1" d="M3.04,14.57c0.45-0.12,0.93-0.17,1.39-0.17c0.52-0.01,1.04,0.03,1.55,0.12c-0.07,0.2-0.15,0.39-0.21,0.59
	c-0.73-0.05-1.49-0.1-2.22,0.06c-0.22,0.06-0.51,0.15-0.57,0.41c-0.01,0.2,0.17,0.31,0.34,0.36c0.52,0.14,1.08,0.12,1.58,0.36
	c0.23,0.1,0.43,0.31,0.47,0.56c0.06,0.4-0.05,0.84-0.33,1.14c-0.32,0.35-0.79,0.5-1.24,0.58c-0.93,0.15-1.89,0.07-2.8-0.16
	c0.05-0.21,0.11-0.41,0.16-0.62c0.78,0.1,1.58,0.22,2.37,0.06c0.3-0.06,0.63-0.22,0.68-0.55c0.06-0.22-0.13-0.39-0.32-0.44
	c-0.5-0.15-1.03-0.12-1.52-0.3c-0.21-0.08-0.42-0.22-0.5-0.44c-0.15-0.38-0.01-0.83,0.29-1.1C2.42,14.8,2.72,14.66,3.04,14.57"/>
<path class="st2" d="M3.04,14.57c0.45-0.12,0.93-0.17,1.39-0.17c0.52-0.01,1.04,0.03,1.55,0.12c-0.07,0.2-0.15,0.39-0.21,0.59
	c-0.73-0.05-1.49-0.1-2.22,0.06c-0.22,0.06-0.51,0.15-0.57,0.41c-0.01,0.2,0.17,0.31,0.34,0.36c0.52,0.14,1.08,0.12,1.58,0.36
	c0.23,0.1,0.43,0.31,0.47,0.56c0.06,0.4-0.05,0.84-0.33,1.14c-0.32,0.35-0.79,0.5-1.24,0.58c-0.93,0.15-1.89,0.07-2.8-0.16
	c0.05-0.21,0.11-0.41,0.16-0.62c0.78,0.1,1.58,0.22,2.37,0.06c0.3-0.06,0.63-0.22,0.68-0.55c0.06-0.22-0.13-0.39-0.32-0.44
	c-0.5-0.15-1.03-0.12-1.52-0.3c-0.21-0.08-0.42-0.22-0.5-0.44c-0.15-0.38-0.01-0.83,0.29-1.1C2.42,14.8,2.72,14.66,3.04,14.57z"/>
<path class="st0" d="M21.29,14.4c0.32,0,0.64,0,0.96,0c0.39,0.53,0.82,1.05,1.26,1.53l-0.02,0.02c-0.21,0.21-0.45,0.39-0.68,0.59
	C22.26,15.87,21.76,15.15,21.29,14.4"/>
<path class="st1" d="M21.29,14.4c0.32,0,0.64,0,0.96,0c0.39,0.53,0.82,1.05,1.26,1.53l-0.02,0.02c-0.21,0.21-0.45,0.39-0.68,0.59
	C22.26,15.87,21.76,15.15,21.29,14.4z"/>
<path class="st2" d="M21.29,14.4c0.32,0,0.64,0,0.96,0c0.39,0.53,0.82,1.05,1.26,1.53l-0.02,0.02c-0.21,0.21-0.45,0.39-0.68,0.59
	C22.26,15.87,21.76,15.15,21.29,14.4z"/>
<path class="st1" d="M13.37,15.26c0.57-0.3,1.24-0.29,1.86-0.22c-0.11,0.52-0.21,1.05-0.32,1.56c-0.06,0.33-0.18,0.67-0.44,0.9
	c-0.32,0.29-0.77,0.36-1.18,0.31c-0.29-0.02-0.59-0.16-0.72-0.43c-0.16-0.31-0.11-0.68-0.02-1.01
	C12.66,15.9,12.95,15.47,13.37,15.26"/>
<path class="st0" d="M13.37,15.26c0.57-0.3,1.24-0.29,1.86-0.22c-0.11,0.52-0.21,1.05-0.32,1.56c-0.06,0.33-0.18,0.67-0.44,0.9
	c-0.32,0.29-0.77,0.36-1.18,0.31c-0.29-0.02-0.59-0.16-0.72-0.43c-0.16-0.31-0.11-0.68-0.02-1.01
	C12.66,15.9,12.95,15.47,13.37,15.26z"/>
<path class="st3" d="M13.37,15.26c0.57-0.3,1.24-0.29,1.86-0.22c-0.11,0.52-0.21,1.05-0.32,1.56c-0.06,0.33-0.18,0.67-0.44,0.9
	c-0.32,0.29-0.77,0.36-1.18,0.31c-0.29-0.02-0.59-0.16-0.72-0.43c-0.16-0.31-0.11-0.68-0.02-1.01
	C12.66,15.9,12.95,15.47,13.37,15.26z"/>
<path class="st0" d="M18.6,15.16c0.35-0.16,0.76-0.22,1.14-0.12c0.18,0.04,0.34,0.19,0.35,0.39c0.04,0.31-0.23,0.55-0.49,0.65
	c-0.61,0.2-1.27,0.15-1.89,0.05C17.88,15.72,18.19,15.35,18.6,15.16z"/>
<path class="st3" d="M18.6,15.16c0.35-0.16,0.76-0.22,1.14-0.12c0.18,0.04,0.34,0.19,0.35,0.39c0.04,0.31-0.23,0.55-0.49,0.65
	c-0.61,0.2-1.27,0.15-1.89,0.05C17.88,15.72,18.19,15.35,18.6,15.16z"/>
<path class="st1" d="M8.4,15.12c0.37-0.09,0.81-0.05,1.11,0.2c0.25,0.22,0.33,0.58,0.3,0.9c-0.04,0.37-0.18,0.73-0.41,1.02
	c-0.32,0.41-0.85,0.67-1.37,0.65c-0.29,0-0.59-0.07-0.79-0.28c-0.14-0.15-0.21-0.35-0.22-0.55C6.98,16.2,7.54,15.31,8.4,15.12"/>
<path class="st0" d="M8.4,15.12c0.37-0.09,0.81-0.05,1.11,0.2c0.25,0.22,0.33,0.58,0.3,0.9c-0.04,0.37-0.18,0.73-0.41,1.02
	c-0.32,0.41-0.85,0.67-1.37,0.65c-0.29,0-0.59-0.07-0.79-0.28c-0.14-0.15-0.21-0.35-0.22-0.55C6.98,16.2,7.54,15.31,8.4,15.12z"/>
<path class="st3" d="M8.4,15.12c0.37-0.09,0.81-0.05,1.11,0.2c0.25,0.22,0.33,0.58,0.3,0.9c-0.04,0.37-0.18,0.73-0.41,1.02
	c-0.32,0.41-0.85,0.67-1.37,0.65c-0.29,0-0.59-0.07-0.79-0.28c-0.14-0.15-0.21-0.35-0.22-0.55C6.98,16.2,7.54,15.31,8.4,15.12z"/>
<path class="st0" d="M28.43,15.11c0.35-0.08,0.76-0.06,1.06,0.16c0.24,0.17,0.35,0.46,0.36,0.75c0.01,0.73-0.42,1.49-1.11,1.77
	c-0.39,0.16-0.84,0.18-1.24,0.02c-0.27-0.1-0.46-0.37-0.49-0.67C26.93,16.26,27.52,15.3,28.43,15.11z"/>
<path class="st3" d="M28.43,15.11c0.35-0.08,0.76-0.06,1.06,0.16c0.24,0.17,0.35,0.46,0.36,0.75c0.01,0.73-0.42,1.49-1.11,1.77
	c-0.39,0.16-0.84,0.18-1.24,0.02c-0.27-0.1-0.46-0.37-0.49-0.67C26.93,16.26,27.52,15.3,28.43,15.11z"/>
<path class="st1" d="M23.39,17.24c0.28-0.17,0.5-0.4,0.75-0.6c0.61,0.67,1.22,1.32,1.84,1.98c-0.43-0.01-0.86,0.01-1.29,0
	c-0.11-0.07-0.19-0.17-0.28-0.26C24.04,17.99,23.7,17.63,23.39,17.24"/>
<path class="st2" d="M23.39,17.24c0.28-0.17,0.5-0.4,0.75-0.6c0.61,0.67,1.22,1.32,1.84,1.98c-0.43-0.01-0.86,0.01-1.29,0
	c-0.11-0.07-0.19-0.17-0.28-0.26C24.04,17.99,23.7,17.63,23.39,17.24z"/>
<path class="st4" d="M23.49,15.96c1.04-0.89,1.97-1.89,2.85-2.93c-0.4,1.38-1.17,2.64-2.21,3.62c-0.25,0.2-0.47,0.43-0.75,0.6
	c-0.9,0.61-1.96,1.01-3.06,1.02l0.02-0.02c0.86-0.5,1.69-1.06,2.46-1.69C23.04,16.35,23.28,16.17,23.49,15.96"/>
<path class="st5" d="M23.49,15.96c1.04-0.89,1.97-1.89,2.85-2.93c-0.4,1.38-1.17,2.64-2.21,3.62c-0.25,0.2-0.47,0.43-0.75,0.6
	c-0.9,0.61-1.96,1.01-3.06,1.02l0.02-0.02c0.86-0.5,1.69-1.06,2.46-1.69C23.04,16.35,23.28,16.17,23.49,15.96z"/>
</svg>
