<svg xmlns="http://www.w3.org/2000/svg" viewBox="4223.3 -13867.7 26.69 31.4">
  <defs>
    <style>
      .cls-1, .cls-2 {
        fill: none;
        stroke-linecap: round;
        stroke-linejoin: round;
        stroke-miterlimit: 10;
        stroke-width: 1.4px;
      }

      .cls-1 {
        stroke: #214796;
      }

      .cls-2 {
        stroke: #214796;
      }
    </style>
  </defs>
  <g id="Group_16559" data-name="Group 16559" transform="translate(4071 -15112)">
    <path id="Path_6039" data-name="Path 6039" class="cls-1" d="M5.957,40.65a8.332,8.332,0,0,1-2.029-3.7c-.471-2.319,1.014-1.63,1.014-1.63L8.6,39.237c3.406,2.681,4.674,8.841,4.674,8.841H9.4c-.217-1.449-2.391-3.587-2.391-3.587L3.638,40.94a5.663,5.663,0,0,1-1.413-3.152L1.5,28.077s.072-1.014,1.268-.362c0,0,.652.254.942,1.7,0,0,1.087,4.964,1.159,5.8" transform="translate(151.5 1226.922)"/>
    <path id="Path_6040" data-name="Path 6040" class="cls-1" d="M46.055,40.714a8.332,8.332,0,0,0,2.029-3.7c.471-2.319-1.014-1.63-1.014-1.63l-3.7,3.913C40,41.982,38.7,48.141,38.7,48.141h3.877c.217-1.449,2.391-3.587,2.391-3.587L48.338,41a5.663,5.663,0,0,0,1.413-3.152l.761-9.674s-.072-1.014-1.268-.362c0,0-.652.254-.942,1.7,0,0-1.087,4.964-1.159,5.8" transform="translate(127.778 1226.859)"/>
    <path id="Path_6041" data-name="Path 6041" class="cls-2" d="M20.693,15.63l.87.8a.459.459,0,0,0,.652,0l.87-.8c4.2-3.877,6.957-6.413,6.957-9.565A4.485,4.485,0,0,0,25.548,1.5a5.034,5.034,0,0,0-3.659,1.92,5.176,5.176,0,0,0-3.7-1.92A4.485,4.485,0,0,0,13.7,6.065C13.7,9.181,16.49,11.754,20.693,15.63Z" transform="translate(143.72 1243.5)"/>
  </g>
</svg>
