<svg xmlns="http://www.w3.org/2000/svg" viewBox="9680 -14681 20 22.34">
  <defs>
    <style>
      .cls-1 {
        fill: #214796;
      }
    </style>
  </defs>
  <path id="Path_11757" data-name="Path 11757" class="cls-1" d="M13.545,17.026a2.084,2.084,0,0,1-1.452-.4,1.707,1.707,0,0,1-.415-1.28,7.838,7.838,0,0,1,.127-1.268c.081-.473.2-1.026.346-1.648h-.115a10.117,10.117,0,0,1-2.467,3.816,4.111,4.111,0,0,1-2.663,1.1,2.1,2.1,0,0,1-.7-.127,1.557,1.557,0,0,1-.622-.415,2.017,2.017,0,0,1-.438-.8,4.129,4.129,0,0,1-.161-1.3,11.985,11.985,0,0,1,.669-4.161A10.559,10.559,0,0,1,7.366,7.447,7.575,7.575,0,0,1,9.66,5.522a5.158,5.158,0,0,1,2.4-.657,15.093,15.093,0,0,1,1.741.081q.726.086,1.66.277l-1.89,9.637a.448.448,0,0,0-.023.173V15.2a.951.951,0,0,0,.161.553.61.61,0,0,0,.519.219,2.548,2.548,0,0,0,1.591-.646A6.225,6.225,0,0,0,17.245,13.6a10.4,10.4,0,0,0,1.026-2.536,11.718,11.718,0,0,0,.4-3.1,6.73,6.73,0,0,0-.622-2.928A6.815,6.815,0,0,0,16.38,2.813a7.684,7.684,0,0,0-2.444-1.418A8.537,8.537,0,0,0,11.009.9a8.842,8.842,0,0,0-3.781.818A10.3,10.3,0,0,0,4.184,4.046a10.855,10.855,0,0,0-2.052,3.5,12.958,12.958,0,0,0-.738,4.473,9.008,9.008,0,0,0,.726,3.608A9.3,9.3,0,0,0,4.1,18.582,9.177,9.177,0,0,0,7.02,20.576a8.788,8.788,0,0,0,3.562.726,15.5,15.5,0,0,0,3.2-.311,11.225,11.225,0,0,0,2.813-1,.835.835,0,0,1,.38-.081.694.694,0,0,1,.311.081,1.17,1.17,0,0,1,.369.3,10.15,10.15,0,0,1-3.239,1.522,14.378,14.378,0,0,1-3.931.53,11.067,11.067,0,0,1-4.265-.8,9.593,9.593,0,0,1-3.308-2.213A10.255,10.255,0,0,1,.772,15.965,11.2,11.2,0,0,1,0,11.723,11.986,11.986,0,0,1,.876,7.112,11.673,11.673,0,0,1,3.3,3.389,11.473,11.473,0,0,1,6.9.9,11.1,11.1,0,0,1,11.366,0a10.024,10.024,0,0,1,3.5.588,8.057,8.057,0,0,1,2.72,1.671,7.7,7.7,0,0,1,1.775,2.594A8.488,8.488,0,0,1,20,8.207a12.535,12.535,0,0,1-.357,2.882,10.141,10.141,0,0,1-1.13,2.859,6.915,6.915,0,0,1-2.006,2.2A4.972,4.972,0,0,1,13.545,17.026ZM13.187,6.294a4.867,4.867,0,0,0-1.51-.242,3.33,3.33,0,0,0-1.937.565A4.375,4.375,0,0,0,8.357,8.184a8.631,8.631,0,0,0-.841,2.421,15.368,15.368,0,0,0-.288,3.112,2.45,2.45,0,0,0,.311,1.429.9.9,0,0,0,.726.415,1.6,1.6,0,0,0,1.049-.5,6.778,6.778,0,0,0,1.1-1.3,15.791,15.791,0,0,0,1.049-1.821,21.087,21.087,0,0,0,.876-2.052c.254-.692.461-1.337.622-1.96A7.476,7.476,0,0,0,13.187,6.294Z" transform="translate(9680 -14681)"/>
</svg>
