<svg xmlns="http://www.w3.org/2000/svg" viewBox="4034.3 -13867.71 37.644 31.409">
  <defs>
    <style>
      .cls-1, .cls-3 {
        fill: none;
        stroke: #214796;
        stroke-linejoin: round;
        stroke-miterlimit: 10;
        stroke-width: 1.4px;
      }

      .cls-1 {
        stroke-linecap: round;
      }

      .cls-2 {
        fill: #214796;
      }
    </style>
  </defs>
  <g id="Group_16553" data-name="Group 16553" transform="translate(-14797 -34221)">
    <path id="Path_6027" data-name="Path 6027" class="cls-1" d="M35.326,4.439A4.856,4.856,0,0,1,39.244,9.01v2.052a3.166,3.166,0,0,1-3.172,3.125H31.361a3.4,3.4,0,0,1-3.312-2.612C28,11.389,28,10.316,28,10.316V9.8a67.831,67.831,0,0,0-13.761,0v.7s-.047,1.073-.093,1.306a3.163,3.163,0,0,1-3.079,2.379H6.125A3.125,3.125,0,0,1,3,11.063V9.01A4.823,4.823,0,0,1,6.918,4.439,70.187,70.187,0,0,1,35.326,4.439Z" transform="translate(18829 20351.014)"/>
    <circle id="Ellipse_2954" data-name="Ellipse 2954" class="cls-2" cx="1.539" cy="1.539" r="1.539" transform="translate(18843.287 20366.975)"/>
    <circle id="Ellipse_2955" data-name="Ellipse 2955" class="cls-2" cx="1.539" cy="1.539" r="1.539" transform="translate(18848.605 20366.975)"/>
    <circle id="Ellipse_2956" data-name="Ellipse 2956" class="cls-2" cx="1.539" cy="1.539" r="1.539" transform="translate(18853.877 20366.975)"/>
    <circle id="Ellipse_2957" data-name="Ellipse 2957" class="cls-2" cx="1.539" cy="1.539" r="1.539" transform="translate(18843.287 20371.965)"/>
    <circle id="Ellipse_2958" data-name="Ellipse 2958" class="cls-2" cx="1.539" cy="1.539" r="1.539" transform="translate(18848.605 20371.965)"/>
    <circle id="Ellipse_2959" data-name="Ellipse 2959" class="cls-2" cx="1.539" cy="1.539" r="1.539" transform="translate(18853.877 20371.965)"/>
    <circle id="Ellipse_2960" data-name="Ellipse 2960" class="cls-2" cx="1.539" cy="1.539" r="1.539" transform="translate(18843.287 20377.004)"/>
    <circle id="Ellipse_2961" data-name="Ellipse 2961" class="cls-2" cx="1.539" cy="1.539" r="1.539" transform="translate(18848.605 20377.004)"/>
    <circle id="Ellipse_2962" data-name="Ellipse 2962" class="cls-2" cx="1.539" cy="1.539" r="1.539" transform="translate(18853.877 20377.004)"/>
    <path id="Path_6028" data-name="Path 6028" class="cls-3" d="M40.136,27V43.139A2.658,2.658,0,0,1,37.477,45.8H18.959A2.658,2.658,0,0,1,16.3,43.139V27" transform="translate(18821.904 20338.201)"/>
  </g>
</svg>
