<svg xmlns="http://www.w3.org/2000/svg" viewBox="0 0 92.465 30.225">
  <defs>
    <style>
      .cls-1 {
        fill: #283c93;
      }

      .cls-2, .cls-4, .cls-6 {
        fill: none;
        stroke-miterlimit: 10;
        stroke-width: 0.094px;
      }

      .cls-2 {
        stroke: #283c93;
      }

      .cls-3 {
        fill: #ea2228;
      }

      .cls-4 {
        stroke: #ea2228;
      }

      .cls-5 {
        fill: #fff;
      }

      .cls-6 {
        stroke: #fff;
      }
    </style>
  </defs>
  <g id="Group_17478" data-name="Group 17478" transform="translate(-0.143 -0.04)">
    <g id="Group_17477" data-name="Group 17477" transform="translate(0.2 0.2)">
      <path id="Path_11904" data-name="Path 11904" class="cls-1" d="M833.656,4.041c.62-1.277,1.214-2.564,1.852-3.841.164,1.3.347,2.6.529,3.905,1.259-.429,2.482-.922,3.759-1.287-.894,1.095-1.761,2.217-2.619,3.34.94.748,1.88,1.46,2.8,2.2-1.259.137-2.518.2-3.778.3-.046,1.341-.137,2.692-.21,4.042-.73-.967-1.4-1.971-2.09-2.956-1.049.958-2.108,1.916-3.121,2.9.392-1.369.785-2.737,1.168-4.1-1.214-.155-2.436-.319-3.65-.484,1.186-.666,2.382-1.35,3.559-2.035-.484-1.168-.985-2.327-1.451-3.495,1.068.511,2.172.967,3.248,1.506" transform="translate(-752.74 -0.2)"/>
      <path id="Path_11905" data-name="Path 11905" class="cls-2" d="M833.656,4.041c.62-1.277,1.214-2.564,1.852-3.841.164,1.3.347,2.6.529,3.905,1.259-.429,2.482-.922,3.759-1.287-.894,1.095-1.761,2.217-2.619,3.34.94.748,1.88,1.46,2.8,2.2-1.259.137-2.518.2-3.778.3-.046,1.341-.137,2.692-.21,4.042-.73-.967-1.4-1.971-2.09-2.956-1.049.958-2.108,1.916-3.121,2.9.392-1.369.785-2.737,1.168-4.1-1.214-.155-2.436-.319-3.65-.484,1.186-.666,2.382-1.35,3.559-2.035-.484-1.168-.985-2.327-1.451-3.495C831.475,3.047,832.579,3.5,833.656,4.041Z" transform="translate(-752.74 -0.2)"/>
      <path id="Path_11906" data-name="Path 11906" class="cls-1" d="M363.468,123.028c1.058-.091,2.117-.155,3.166-.228q-1.136,6.063-2.29,12.09a7.735,7.735,0,0,1-2.746,4.8,8.778,8.778,0,0,1-5.739,1.442,6.39,6.39,0,0,1-4.745-2.108,5.939,5.939,0,0,1-.684-5.347,7.37,7.37,0,0,1,4.27-4.8c2.436-1.1,5.183-.931,7.792-.849q.493-2.518.976-5" transform="translate(-318.174 -111.613)"/>
      <path id="Path_11907" data-name="Path 11907" class="cls-2" d="M363.468,123.028c1.058-.091,2.117-.155,3.166-.228q-1.136,6.063-2.29,12.09a7.735,7.735,0,0,1-2.746,4.8,8.778,8.778,0,0,1-5.739,1.442,6.39,6.39,0,0,1-4.745-2.108,5.939,5.939,0,0,1-.684-5.347,7.37,7.37,0,0,1,4.27-4.8c2.436-1.1,5.183-.931,7.792-.849Q362.985,125.51,363.468,123.028Z" transform="translate(-318.174 -111.613)"/>
      <path id="Path_11908" data-name="Path 11908" class="cls-3" d="M662.036,145.033A79,79,0,0,0,670.823,136a24.821,24.821,0,0,1-6.816,11.141,21.327,21.327,0,0,1-2.3,1.834,17.31,17.31,0,0,1-9.407,3.13l.073-.064a58.335,58.335,0,0,0,7.573-5.21c.693-.584,1.433-1.15,2.09-1.8" transform="translate(-592.799 -123.609)"/>
      <path id="Path_11909" data-name="Path 11909" class="cls-4" d="M662.036,145.033A79,79,0,0,0,670.823,136a24.821,24.821,0,0,1-6.816,11.141,21.327,21.327,0,0,1-2.3,1.834,17.31,17.31,0,0,1-9.407,3.13l.073-.064a58.335,58.335,0,0,0,7.573-5.21C660.64,146.247,661.379,145.681,662.036,145.033Z" transform="translate(-592.799 -123.609)"/>
      <path id="Path_11910" data-name="Path 11910" class="cls-1" d="M172.966,181a8.713,8.713,0,0,1,5.274.876,4.467,4.467,0,0,1,2.2,3.23,7.591,7.591,0,0,1-1.332,5.183,9.239,9.239,0,0,1-6.816,3.768,8.7,8.7,0,0,1-5.155-.922,4.461,4.461,0,0,1-2.181-3.367,7.7,7.7,0,0,1,1.725-5.529A9.385,9.385,0,0,1,172.966,181" transform="translate(-149.89 -164.444)"/>
      <path id="Path_11911" data-name="Path 11911" class="cls-2" d="M172.966,181a8.713,8.713,0,0,1,5.274.876,4.467,4.467,0,0,1,2.2,3.23,7.591,7.591,0,0,1-1.332,5.183,9.239,9.239,0,0,1-6.816,3.768,8.7,8.7,0,0,1-5.155-.922,4.461,4.461,0,0,1-2.181-3.367,7.7,7.7,0,0,1,1.725-5.529A9.385,9.385,0,0,1,172.966,181Z" transform="translate(-149.89 -164.444)"/>
      <path id="Path_11912" data-name="Path 11912" class="cls-1" d="M524.439,183.135a9.75,9.75,0,0,1,7.026-2.473A6,6,0,0,1,535.3,181.8a3.2,3.2,0,0,1,.6,3.741,4.852,4.852,0,0,1-2.637,2.153,15.03,15.03,0,0,1-7.938.383,3.813,3.813,0,0,0,1.807,3.75c2.071,1.113,4.544,1.049,6.816.8l-.073.064a9.382,9.382,0,0,1-6.816,1.35,6.259,6.259,0,0,1-4.033-2.2,4.852,4.852,0,0,1-1-3.458,7.73,7.73,0,0,1,2.418-5.256" transform="translate(-474.391 -164.193)"/>
      <path id="Path_11913" data-name="Path 11913" class="cls-2" d="M524.439,183.135a9.75,9.75,0,0,1,7.026-2.473A6,6,0,0,1,535.3,181.8a3.2,3.2,0,0,1,.6,3.741,4.852,4.852,0,0,1-2.637,2.153,15.03,15.03,0,0,1-7.938.383,3.813,3.813,0,0,0,1.807,3.75c2.071,1.113,4.544,1.049,6.816.8l-.073.064a9.382,9.382,0,0,1-6.816,1.35,6.259,6.259,0,0,1-4.033-2.2,4.852,4.852,0,0,1-1-3.458A7.73,7.73,0,0,1,524.439,183.135Z" transform="translate(-474.391 -164.193)"/>
      <path id="Path_11914" data-name="Path 11914" class="cls-1" d="M846.33,180.323a9.628,9.628,0,0,1,5.456.593,4.615,4.615,0,0,1,2.655,3.358,7.466,7.466,0,0,1-1.2,5.237,9.236,9.236,0,0,1-6.469,3.951,9.494,9.494,0,0,1-5.374-.639,4.6,4.6,0,0,1-2.591-3.194,7.363,7.363,0,0,1,.94-5.009,9.169,9.169,0,0,1,6.579-4.3" transform="translate(-762.184 -163.762)"/>
      <path id="Path_11915" data-name="Path 11915" class="cls-2" d="M846.33,180.323a9.628,9.628,0,0,1,5.456.593,4.615,4.615,0,0,1,2.655,3.358,7.466,7.466,0,0,1-1.2,5.237,9.236,9.236,0,0,1-6.469,3.951,9.494,9.494,0,0,1-5.374-.639,4.6,4.6,0,0,1-2.591-3.194,7.363,7.363,0,0,1,.94-5.009A9.169,9.169,0,0,1,846.33,180.323Z" transform="translate(-762.184 -163.762)"/>
      <path id="Path_11916" data-name="Path 11916" class="cls-1" d="M6.478,182.892a15.814,15.814,0,0,1,4.289-.511,25.9,25.9,0,0,1,4.754.365c-.228.611-.456,1.2-.648,1.807a22.9,22.9,0,0,0-6.834.2c-.684.182-1.56.456-1.743,1.259-.027.611.529.958,1.049,1.1,1.606.438,3.33.383,4.845,1.095a2.393,2.393,0,0,1,1.442,1.734,4.227,4.227,0,0,1-1.013,3.5A6.787,6.787,0,0,1,8.8,195.237a21.371,21.371,0,0,1-8.6-.5c.155-.639.338-1.277.484-1.916A22.236,22.236,0,0,0,7.974,193c.912-.2,1.944-.684,2.108-1.7.182-.666-.411-1.2-.985-1.369-1.533-.474-3.166-.365-4.663-.922a2.506,2.506,0,0,1-1.533-1.35,3.139,3.139,0,0,1,.876-3.367,6.787,6.787,0,0,1,2.7-1.405" transform="translate(-0.2 -165.756)"/>
      <path id="Path_11917" data-name="Path 11917" class="cls-2" d="M6.478,182.892a15.814,15.814,0,0,1,4.289-.511,25.9,25.9,0,0,1,4.754.365c-.228.611-.456,1.2-.648,1.807a22.9,22.9,0,0,0-6.834.2c-.684.182-1.56.456-1.743,1.259-.027.611.529.958,1.049,1.1,1.606.438,3.33.383,4.845,1.095a2.393,2.393,0,0,1,1.442,1.734,4.227,4.227,0,0,1-1.013,3.5A6.787,6.787,0,0,1,8.8,195.237a21.371,21.371,0,0,1-8.6-.5c.155-.639.338-1.277.484-1.916A22.236,22.236,0,0,0,7.974,193c.912-.2,1.944-.684,2.108-1.7.182-.666-.411-1.2-.985-1.369-1.533-.474-3.166-.365-4.663-.922a2.506,2.506,0,0,1-1.533-1.35,3.139,3.139,0,0,1,.876-3.367A6.787,6.787,0,0,1,6.478,182.892Z" transform="translate(-0.2 -165.756)"/>
      <path id="Path_11918" data-name="Path 11918" class="cls-1" d="M684.7,182.4c.985,0,1.989.018,2.966,0,1.214,1.642,2.518,3.221,3.878,4.727l-.064.073c-.648.648-1.4,1.214-2.09,1.807a67.037,67.037,0,0,1-4.69-6.606" transform="translate(-622.243 -165.775)"/>
      <path id="Path_11919" data-name="Path 11919" class="cls-2" d="M684.7,182.4c.985,0,1.989.018,2.966,0,1.214,1.642,2.518,3.221,3.878,4.727l-.064.073c-.648.648-1.4,1.214-2.09,1.807A67.037,67.037,0,0,1,684.7,182.4Z" transform="translate(-622.243 -165.775)"/>
      <path id="Path_11920" data-name="Path 11920" class="cls-5" d="M389.669,203.3a10,10,0,0,1,5.73-.684c-.347,1.606-.648,3.221-.985,4.809a4.732,4.732,0,0,1-1.35,2.765,4.532,4.532,0,0,1-3.641.94A2.691,2.691,0,0,1,387.2,209.8a4.376,4.376,0,0,1-.073-3.1,5.208,5.208,0,0,1,2.546-3.394" transform="translate(-351.592 -184.041)"/>
      <path id="Path_11921" data-name="Path 11921" class="cls-6" d="M389.669,203.3a10,10,0,0,1,5.73-.684c-.347,1.606-.648,3.221-.985,4.809a4.732,4.732,0,0,1-1.35,2.765,4.532,4.532,0,0,1-3.641.94A2.691,2.691,0,0,1,387.2,209.8a4.376,4.376,0,0,1-.073-3.1A5.208,5.208,0,0,1,389.669,203.3Z" transform="translate(-351.592 -184.041)"/>
      <path id="Path_11922" data-name="Path 11922" class="cls-5" d="M566.256,202.968a5.39,5.39,0,0,1,3.5-.383,1.368,1.368,0,0,1,1.077,1.2,2.006,2.006,0,0,1-1.515,1.989,12.2,12.2,0,0,1-5.821.155,5.721,5.721,0,0,1,2.756-2.965" transform="translate(-512.102 -183.989)"/>
      <path id="Path_11923" data-name="Path 11923" class="cls-6" d="M566.256,202.968a5.39,5.39,0,0,1,3.5-.383,1.368,1.368,0,0,1,1.077,1.2,2.006,2.006,0,0,1-1.515,1.989,12.2,12.2,0,0,1-5.821.155A5.721,5.721,0,0,1,566.256,202.968Z" transform="translate(-512.102 -183.989)"/>
      <path id="Path_11924" data-name="Path 11924" class="cls-5" d="M207.212,205.148a3.965,3.965,0,0,1,3.422.611,3.189,3.189,0,0,1,.912,2.774,6.281,6.281,0,0,1-1.259,3.139,5.178,5.178,0,0,1-4.216,1.989,3.3,3.3,0,0,1-2.436-.867,2.655,2.655,0,0,1-.684-1.7,5.892,5.892,0,0,1,4.261-5.949" transform="translate(-184.447 -186.324)"/>
      <path id="Path_11925" data-name="Path 11925" class="cls-6" d="M207.212,205.148a3.965,3.965,0,0,1,3.422.611,3.189,3.189,0,0,1,.912,2.774,6.281,6.281,0,0,1-1.259,3.139,5.178,5.178,0,0,1-4.216,1.989,3.3,3.3,0,0,1-2.436-.867,2.655,2.655,0,0,1-.684-1.7A5.892,5.892,0,0,1,207.212,205.148Z" transform="translate(-184.447 -186.324)"/>
      <path id="Path_11926" data-name="Path 11926" class="cls-5" d="M881.921,204.89a4.051,4.051,0,0,1,3.276.5,2.866,2.866,0,0,1,1.1,2.309,5.833,5.833,0,0,1-3.422,5.447,5.127,5.127,0,0,1-3.8.073,2.43,2.43,0,0,1-1.5-2.053,5.945,5.945,0,0,1,4.343-6.278" transform="translate(-797.501 -186.094)"/>
      <path id="Path_11927" data-name="Path 11927" class="cls-6" d="M881.921,204.89a4.051,4.051,0,0,1,3.276.5,2.866,2.866,0,0,1,1.1,2.309,5.833,5.833,0,0,1-3.422,5.447,5.127,5.127,0,0,1-3.8.073,2.43,2.43,0,0,1-1.5-2.053A5.945,5.945,0,0,1,881.921,204.89Z" transform="translate(-797.501 -186.094)"/>
      <path id="Path_11928" data-name="Path 11928" class="cls-1" d="M755.3,259.934a23.834,23.834,0,0,0,2.3-1.834c1.861,2.053,3.759,4.07,5.648,6.086-1.323-.027-2.655.018-3.969-.018a5.552,5.552,0,0,1-.867-.8c-1.077-1.1-2.135-2.226-3.111-3.431" transform="translate(-686.401 -234.568)"/>
      <path id="Path_11929" data-name="Path 11929" class="cls-2" d="M755.3,259.934a23.834,23.834,0,0,0,2.3-1.834c1.861,2.053,3.759,4.07,5.648,6.086-1.323-.027-2.655.018-3.969-.018a5.552,5.552,0,0,1-.867-.8C757.335,262.261,756.276,261.138,755.3,259.934Z" transform="translate(-686.401 -234.568)"/>
    </g>
  </g>
</svg>
